<?xml version="1.0" encoding="UTF-8" standalone="no"?>
<svg width="419px" height="589px" viewBox="0 0 419 589" version="1.1" xmlns="http://www.w3.org/2000/svg" xmlns:xlink="http://www.w3.org/1999/xlink" xmlns:sketch="http://www.bohemiancoding.com/sketch/ns">
    <!-- Generator: Sketch 3.3.3 (12081) - http://www.bohemiancoding.com/sketch -->
    <title>Chart_OurApproach</title>
    <desc>Created with Sketch.</desc>
    <defs></defs>
    <g id="Page-1" stroke="none" stroke-width="1" fill="none" fill-rule="evenodd" sketch:type="MSPage">
        <g id="Chart_OurApproach" sketch:type="MSLayerGroup" transform="translate(0.000000, -1.000000)">
            <g id="Chart" transform="translate(232.795066, 294.795066) rotate(90.000000) translate(-232.795066, -294.795066) translate(-61.704934, 118.295066)" sketch:type="MSShapeGroup">
                <path d="M586.646272,328 L284.347753,328" id="Line-Copy-2" stroke="#4A4A4A" stroke-width="3"></path>
                <path d="M452.783816,169.460905 C452.783816,130.1574 438.837725,94.149871 415.679671,66.22868 C388.297415,33.2144553 348.036029,11.5056376 302.721544,9.02121654" id="Oval-8-Copy-13" stroke="#4A4A4A" stroke-width="3"></path>
                <path d="M280.439946,9.62660404 C243.237746,10.9412216 209.243425,24.4935952 182.58062,46.270653 C148.78412,73.8742134 126.767082,114.692282 124.927541,160.55199" id="Oval-8-Copy-14" stroke="#4A4A4A" stroke-width="3"></path>
                <path d="M450.447548,342.686424 C448.750538,303.8943 434.269249,268.46451 411.163002,240.605781 C384.534049,208.499799 346.449799,186.449371 303.276687,180.896557" id="Oval-8-Copy-16" stroke="#4A4A4A" stroke-width="3" transform="translate(376.862118, 261.791490) scale(1, -1) translate(-376.862118, -261.791490) "></path>
                <path d="M281.774404,328.088492 C243.189658,328.088492 207.840614,314.606216 180.430028,292.218346 C147.732517,265.512326 126.331119,226.134001 124.208386,181.851916" id="Oval-8-Copy-15" stroke="#4A4A4A" stroke-width="3"></path>
                <path d="M282.242946,344 L0.794541147,344" id="Line" stroke="#4A4A4A" stroke-width="3"></path>
                <g id="Arrow" transform="translate(441.395025, 176.374051)" fill="#4A4A4A">
                    <path d="M2.27407121,11.3644385 C1.94527864,11.3644385 1.61648607,11.1751337 1.36989164,10.8911765 C0.876702786,10.323262 0.876702786,9.37673797 1.36989164,8.71417112 L7.69914861,1.42593583 C8.19233746,0.85802139 9.01431889,0.85802139 9.58970588,1.42593583 C10.0828947,1.99385027 10.0828947,2.94037433 9.58970588,3.60294118 L3.17825077,10.8911765 C2.93165635,11.1751337 2.60286378,11.3644385 2.27407121,11.3644385 L2.27407121,11.3644385 L2.27407121,11.3644385 Z" id="Shape"></path>
                    <path d="M15.1791796,11.3644385 C14.850387,11.3644385 14.5215944,11.1751337 14.275,10.8911765 L7.94574303,3.60294118 C7.45255418,3.03502674 7.45255418,2.08850267 7.94574303,1.42593583 C8.43893189,0.85802139 9.26091331,0.85802139 9.83630031,1.42593583 L16.1655573,8.71417112 C16.6587461,9.28208556 16.6587461,10.2286096 16.1655573,10.8911765 C15.8367647,11.1751337 15.5079721,11.3644385 15.1791796,11.3644385 L15.1791796,11.3644385 L15.1791796,11.3644385 Z" id="Shape"></path>
                </g>
                <g id="Arrow-Copy" transform="translate(304.580327, 9.892804) rotate(-90.000000) translate(-304.580327, -9.892804) translate(295.580327, 4.392804)" fill="#4A4A4A">
                    <path d="M2.34485294,10.3683824 C1.99779412,10.3683824 1.65073529,10.1948529 1.39044118,9.93455882 C0.869852941,9.41397059 0.869852941,8.54632353 1.39044118,7.93897059 L8.07132353,1.25808824 C8.59191176,0.7375 9.45955882,0.7375 10.0669118,1.25808824 C10.5875,1.77867647 10.5875,2.64632353 10.0669118,3.25367647 L3.29926471,9.93455882 C3.03897059,10.1948529 2.69191176,10.3683824 2.34485294,10.3683824 L2.34485294,10.3683824 L2.34485294,10.3683824 Z" id="Shape"></path>
                    <path d="M15.9669118,10.3683824 C15.6198529,10.3683824 15.2727941,10.1948529 15.0125,9.93455882 L8.33161765,3.25367647 C7.81102941,2.73308824 7.81102941,1.86544118 8.33161765,1.25808824 C8.85220588,0.7375 9.71985294,0.7375 10.3272059,1.25808824 L17.0080882,7.93897059 C17.5286765,8.45955882 17.5286765,9.32720588 17.0080882,9.93455882 C16.6610294,10.1948529 16.3139706,10.3683824 15.9669118,10.3683824 L15.9669118,10.3683824 L15.9669118,10.3683824 Z" id="Shape"></path>
                </g>
                <g id="Arrow-Copy-3" transform="translate(279.695113, 327.687897) scale(1, -1) rotate(-90.000000) translate(-279.695113, -327.687897) translate(271.195113, 322.187897)" fill="#4A4A4A">
                    <path d="M2.27407121,10.5007353 C1.94527864,10.5007353 1.61648607,10.3272059 1.36989164,10.0669118 C0.876702786,9.54632353 0.876702786,8.67867647 1.36989164,8.07132353 L7.69914861,1.39044118 C8.19233746,0.869852941 9.01431889,0.869852941 9.58970588,1.39044118 C10.0828947,1.91102941 10.0828947,2.77867647 9.58970588,3.38602941 L3.17825077,10.0669118 C2.93165635,10.3272059 2.60286378,10.5007353 2.27407121,10.5007353 L2.27407121,10.5007353 L2.27407121,10.5007353 Z" id="Shape" transform="translate(5.479799, 5.750368) scale(1, -1) translate(-5.479799, -5.750368) "></path>
                    <path d="M15.1791796,10.5007353 C14.850387,10.5007353 14.5215944,10.3272059 14.275,10.0669118 L7.94574303,3.38602941 C7.45255418,2.86544118 7.45255418,1.99779412 7.94574303,1.39044118 C8.43893189,0.869852941 9.26091331,0.869852941 9.83630031,1.39044118 L16.1655573,8.07132353 C16.6587461,8.59191176 16.6587461,9.45955882 16.1655573,10.0669118 C15.8367647,10.3272059 15.5079721,10.5007353 15.1791796,10.5007353 L15.1791796,10.5007353 L15.1791796,10.5007353 Z" id="Shape" transform="translate(12.055650, 5.750368) scale(1, -1) translate(-12.055650, -5.750368) "></path>
                </g>
                <g id="Arrow-Copy-4" transform="translate(583.871583, 328.687896) rotate(-90.000000) translate(-583.871583, -328.687896) translate(575.371583, 323.687896)" fill="#4A4A4A">
                    <path d="M2.27407121,9.99535409 C1.94527864,9.99535409 1.61648607,9.83105539 1.36989164,9.58460733 C0.876702786,9.09171122 0.876702786,8.27021769 1.36989164,7.69517222 L7.69914861,1.36967209 C8.19233746,0.876775971 9.01431889,0.876775971 9.58970588,1.36967209 C10.0828947,1.8625682 10.0828947,2.68406173 9.58970588,3.25910719 L3.17825077,9.58460733 C2.93165635,9.83105539 2.60286378,9.99535409 2.27407121,9.99535409 L2.27407121,9.99535409 L2.27407121,9.99535409 Z" id="Shape" transform="translate(5.479799, 5.497677) scale(1, -1) translate(-5.479799, -5.497677) "></path>
                    <path d="M15.1791796,9.99535409 C14.850387,9.99535409 14.5215944,9.83105539 14.275,9.58460733 L7.94574303,3.25910719 C7.45255418,2.76621108 7.45255418,1.94471755 7.94574303,1.36967209 C8.43893189,0.876775971 9.26091331,0.876775971 9.83630031,1.36967209 L16.1655573,7.69517222 C16.6587461,8.18806834 16.6587461,9.00956186 16.1655573,9.58460733 C15.8367647,9.83105539 15.5079721,9.99535409 15.1791796,9.99535409 L15.1791796,9.99535409 L15.1791796,9.99535409 Z" id="Shape" transform="translate(12.055650, 5.497677) scale(1, -1) translate(-12.055650, -5.497677) "></path>
                </g>
                <g id="Arrow-Copy-5" transform="translate(280.195112, 344.305544) scale(1, -1) rotate(-90.000000) translate(-280.195112, -344.305544) translate(271.695112, 339.305544)" fill="#4A4A4A">
                    <path d="M2.27407121,9.99535409 C1.94527864,9.99535409 1.61648607,9.83105539 1.36989164,9.58460733 C0.876702786,9.09171122 0.876702786,8.27021769 1.36989164,7.69517222 L7.69914861,1.36967209 C8.19233746,0.876775971 9.01431889,0.876775971 9.58970588,1.36967209 C10.0828947,1.8625682 10.0828947,2.68406173 9.58970588,3.25910719 L3.17825077,9.58460733 C2.93165635,9.83105539 2.60286378,9.99535409 2.27407121,9.99535409 L2.27407121,9.99535409 L2.27407121,9.99535409 Z" id="Shape" transform="translate(5.479799, 5.497677) scale(1, -1) translate(-5.479799, -5.497677) "></path>
                    <path d="M15.1791796,9.99535409 C14.850387,9.99535409 14.5215944,9.83105539 14.275,9.58460733 L7.94574303,3.25910719 C7.45255418,2.76621108 7.45255418,1.94471755 7.94574303,1.36967209 C8.43893189,0.876775971 9.26091331,0.876775971 9.83630031,1.36967209 L16.1655573,7.69517222 C16.6587461,8.18806834 16.6587461,9.00956186 16.1655573,9.58460733 C15.8367647,9.83105539 15.5079721,9.99535409 15.1791796,9.99535409 L15.1791796,9.99535409 L15.1791796,9.99535409 Z" id="Shape" transform="translate(12.055650, 5.497677) scale(1, -1) translate(-12.055650, -5.497677) "></path>
                </g>
                <g id="Arrow-Copy-2" transform="translate(125.502533, 159.497485) rotate(180.000000) translate(-125.502533, -159.497485) translate(116.502533, 154.497485)" fill="#4A4A4A">
                    <path d="M2.34485294,9.50435049 C1.99779412,9.50435049 1.65073529,9.34528186 1.39044118,9.10667892 C0.869852941,8.62947304 0.869852941,7.8341299 1.39044118,7.27738971 L8.07132353,1.15324755 C8.59191176,0.676041667 9.45955882,0.676041667 10.0669118,1.15324755 C10.5875,1.63045343 10.5875,2.42579657 10.0669118,2.98253676 L3.29926471,9.10667892 C3.03897059,9.34528186 2.69191176,9.50435049 2.34485294,9.50435049 L2.34485294,9.50435049 L2.34485294,9.50435049 Z" id="Shape"></path>
                    <path d="M15.9669118,9.50435049 C15.6198529,9.50435049 15.2727941,9.34528186 15.0125,9.10667892 L8.33161765,2.98253676 C7.81102941,2.50533088 7.81102941,1.70998775 8.33161765,1.15324755 C8.85220588,0.676041667 9.71985294,0.676041667 10.3272059,1.15324755 L17.0080882,7.27738971 C17.5286765,7.75459559 17.5286765,8.54993873 17.0080882,9.10667892 C16.6610294,9.34528186 16.3139706,9.50435049 15.9669118,9.50435049 L15.9669118,9.50435049 L15.9669118,9.50435049 Z" id="Shape"></path>
                </g>
            </g>
            <g id="Discover" transform="translate(0.000000, 24.000000)">
                <path d="M66,132 C102.450793,132 132,102.450793 132,66 C132,29.5492065 102.450793,0 66,0 C29.5492065,0 0,29.5492065 0,66 C0,102.450793 29.5492065,132 66,132 L66,132 Z" id="Oval-77" fill="#4A4A4A" sketch:type="MSShapeGroup"></path>
                <g id="Group" transform="translate(36.000000, 34.000000)"></g>
                <path d="M44.3874842,93.6125158 C44.6455426,93.8705742 44.9839798,93.9996034 45.3224171,93.9996034 C45.6608543,93.9996034 45.9992915,93.8705742 46.2573499,93.6125158 L51.106521,88.7633448 L52.6506408,90.3074647 C52.9086992,90.5655231 53.2471365,90.6945523 53.5855737,90.6945523 C53.9240109,90.6945523 54.2624482,90.5655231 54.5205066,90.3074647 L63.5001983,81.3267153 L63.8307034,81.6572204 L63.8307034,85.76606 L55.6986912,102.681047 C55.3824639,103.338885 55.6590306,104.128924 56.3173968,104.44568 C56.975763,104.761908 57.7652736,104.484812 58.0820297,103.826975 L63.8307034,91.8690352 L63.8307034,103.253747 C63.8307034,103.984031 64.4224398,104.575767 65.1527239,104.575767 C65.883008,104.575767 66.4747443,103.984031 66.4747443,103.253747 L66.4747443,91.8690352 L72.2234181,103.826975 C72.4518632,104.300258 72.9240889,104.576825 73.4164093,104.576825 C73.6083667,104.576825 73.8034969,104.53452 73.988051,104.446209 C74.6464172,104.128924 74.9235126,103.339413 74.6072853,102.681047 L66.4747443,85.76606 L66.4747443,81.6572204 L73.4153517,74.7166131 L74.1329444,75.4347346 C74.3910028,75.6922641 74.72944,75.8218222 75.0678773,75.8218222 C75.4063145,75.8218222 75.7447517,75.6922641 76.0028101,75.4347346 L80.9603868,70.4771579 C81.4770324,69.9610411 81.4770324,69.1234089 80.9603868,68.6078209 L69.3927079,57.0396132 C68.8765911,56.5229676 68.0389589,56.5229676 67.5233709,57.0396132 L62.5657942,61.9971899 C62.0491487,62.5133066 62.0491487,63.3509388 62.5657942,63.8665268 L63.2839158,64.5841195 L55.9551632,71.9123433 C55.4385176,72.42846 55.4385176,73.2660922 55.9551632,73.7816802 L56.6732847,74.4992729 L47.6925353,83.4800222 C47.1758897,83.9966678 47.1758897,84.8337712 47.6925353,85.3493592 L49.2366552,86.893479 L44.3874842,91.7426501 C43.8708386,92.2587669 43.8708386,93.096399 44.3874842,93.6125158 L44.3874842,93.6125158 L44.3874842,93.6125158 Z M68.457775,59.8444118 L78.1555882,69.542225 L75.0678773,72.629936 L65.370064,62.9321227 L68.457775,59.8444118 L68.457775,59.8444118 Z M65.1527239,66.4539852 L71.5460148,72.8472761 L65.1527239,79.2400382 L58.7599618,72.8472761 L65.1527239,66.4539852 L65.1527239,66.4539852 Z M58.5426216,76.3691386 L61.6308614,79.4573784 L53.5850449,87.5031949 L50.4973339,84.4149551 L58.5426216,76.3691386 L58.5426216,76.3691386 Z M72.0933313,56.3220205 C72.0933313,55.5917364 72.6850676,55 73.4153517,55 C78.7002607,55 83,59.2997393 83,64.5846483 C83,65.3149324 82.4082636,65.9066687 81.6779795,65.9066687 C80.9476954,65.9066687 80.3559591,65.3149324 80.3559591,64.5846483 C80.3559591,60.7576635 77.2423365,57.6440409 73.4153517,57.6440409 C72.6850676,57.6440409 72.0933313,57.0523046 72.0933313,56.3220205 L72.0933313,56.3220205 L72.0933313,56.3220205 Z" id="Icon_discover" fill="#FFFFFF" sketch:type="MSShapeGroup"></path>
                <path d="M38.0851371,32.9690289 L38.0851371,42.7690289 L42.0611371,42.7690289 C45.0291371,42.7690289 47.1711371,40.6970289 47.1711371,37.8690289 C47.1711371,35.0270289 45.0431371,32.9690289 42.1031371,32.9690289 L38.0851371,32.9690289 Z M39.7371371,34.4530289 L42.0751371,34.4530289 C44.0071371,34.4530289 45.5051371,35.8810289 45.5051371,37.8830289 C45.5051371,39.8710289 44.0491371,41.2850289 42.1451371,41.2850289 L39.7371371,41.2850289 L39.7371371,34.4530289 Z M49.6351371,32.2130289 C49.1031371,32.2130289 48.6971371,32.6190289 48.6971371,33.1930289 C48.6971371,33.7530289 49.1031371,34.1590289 49.6351371,34.1590289 C50.1671371,34.1590289 50.5731371,33.7530289 50.5731371,33.1930289 C50.5731371,32.6190289 50.1671371,32.2130289 49.6351371,32.2130289 L49.6351371,32.2130289 Z M50.4331371,42.7690289 L50.4331371,35.3210289 L48.8371371,35.3210289 L48.8371371,42.7690289 L50.4331371,42.7690289 Z M55.0391371,35.2510289 C53.6111371,35.2510289 52.2951371,35.8950289 52.2951371,37.4070289 C52.2811371,40.0950289 56.2011371,39.2410289 56.2011371,40.7670289 C56.2011371,41.3270289 55.6691371,41.5650289 54.9831371,41.5650289 C54.1711371,41.5650289 53.1351371,41.2150289 52.4911371,40.6410289 L51.9171371,41.7890289 C52.6591371,42.4610289 53.8211371,42.8250289 54.9131371,42.8250289 C56.4111371,42.8250289 57.7691371,42.1390289 57.7691371,40.6130289 C57.7831371,37.9110289 53.8211371,38.6530289 53.8211371,37.2810289 C53.8211371,36.7490289 54.2831371,36.5390289 54.9131371,36.5390289 C55.5711371,36.5390289 56.3971371,36.7910289 57.0551371,37.1970289 L57.6431371,36.0070289 C56.9711371,35.5310289 55.9771371,35.2510289 55.0391371,35.2510289 L55.0391371,35.2510289 Z M62.4451371,35.2650289 C60.2331371,35.2650289 58.6931371,36.8050289 58.6931371,39.0590289 C58.6931371,41.2990289 60.2331371,42.8250289 62.4451371,42.8250289 C63.8591371,42.8250289 64.9371371,42.3210289 65.6091371,41.4390289 L64.7131371,40.5430289 C64.2091371,41.1310289 63.4531371,41.4390289 62.5151371,41.4390289 C61.2271371,41.4390289 60.3031371,40.4730289 60.3031371,39.0590289 C60.3031371,37.6450289 61.2271371,36.6790289 62.5151371,36.6790289 C63.4111371,36.6650289 64.1251371,36.9870289 64.6431371,37.5190289 L65.5251371,36.4830289 C64.8391371,35.6990289 63.7891371,35.2650289 62.4451371,35.2650289 L62.4451371,35.2650289 Z M70.1871371,35.2650289 C67.8771371,35.2650289 66.2951371,36.7910289 66.2951371,39.0450289 C66.2951371,41.2850289 67.8771371,42.8250289 70.1871371,42.8250289 C72.4831371,42.8250289 74.0651371,41.2850289 74.0651371,39.0450289 C74.0651371,36.7910289 72.4831371,35.2650289 70.1871371,35.2650289 L70.1871371,35.2650289 Z M70.1871371,36.6510289 C71.5171371,36.6510289 72.4551371,37.6310289 72.4551371,39.0590289 C72.4551371,40.5010289 71.5171371,41.4810289 70.1871371,41.4810289 C68.8431371,41.4810289 67.9051371,40.5010289 67.9051371,39.0590289 C67.9051371,37.6310289 68.8431371,36.6510289 70.1871371,36.6510289 L70.1871371,36.6510289 Z M78.8391371,42.7690289 L81.6951371,35.3210289 L80.0851371,35.3210289 L78.0411371,41.1870289 L75.9691371,35.3210289 L74.2891371,35.3210289 L77.1731371,42.7690289 L78.8391371,42.7690289 Z M85.6011371,35.2650289 C83.3891371,35.2790289 81.8351371,36.8050289 81.8351371,39.0590289 C81.8351371,41.2990289 83.3471371,42.8250289 85.6431371,42.8250289 C86.9311371,42.8250289 87.9951371,42.3630289 88.7231371,41.5650289 L87.8691371,40.6550289 C87.3231371,41.2150289 86.5811371,41.5230289 85.7691371,41.5230289 C84.5931371,41.5230289 83.7111371,40.8090289 83.4591371,39.6610289 L89.0871371,39.6610289 C89.2831371,36.9730289 88.2191371,35.2650289 85.6011371,35.2650289 L85.6011371,35.2650289 Z M83.4311371,38.4850289 C83.6131371,37.2950289 84.4391371,36.5530289 85.6151371,36.5530289 C86.8331371,36.5530289 87.6311371,37.2810289 87.6871371,38.4850289 L83.4311371,38.4850289 Z M92.3771371,35.3210289 L90.7671371,35.3210289 L90.7671371,42.7690289 L92.3771371,42.7690289 L92.3771371,38.8770289 C92.5031371,37.6030289 93.4551371,36.7210289 94.9531371,36.8050289 L94.9531371,35.2650289 C93.7771371,35.2650289 92.8811371,35.7970289 92.3771371,36.8050289 L92.3771371,35.3210289 Z" fill="#FFFFFF" sketch:type="MSShapeGroup"></path>
            </g>
            <g id="Analyze" transform="translate(278.000000, 346.000000)" sketch:type="MSShapeGroup">
                <path d="M66,132 C102.450793,132 132,102.450793 132,66 C132,29.5492065 102.450793,0 66,0 C29.5492065,0 0,29.5492065 0,66 C0,102.450793 29.5492065,132 66,132 L66,132 Z" id="Oval-77-Copy" fill="#4A4A4A"></path>
                <g id="Icon_analyze" transform="translate(36.000000, 50.000000)" fill="#FFFFFF">
                    <path d="M58.75,48.5833333 L1.25,48.5833333 C0.56,48.5833333 0,48.0886667 0,47.4791667 C0,46.8696667 0.56,46.375 1.25,46.375 L58.75,46.375 C59.44,46.375 60,46.8696667 60,47.4791667 C60,48.0886667 59.44,48.5833333 58.75,48.5833333 L58.75,48.5833333 L58.75,48.5833333 Z" id="Shape"></path>
                    <path d="M6.25,53 C5.56,53 5,52.5053333 5,51.8958333 L5,1.10416667 C5,0.494666667 5.56,0 6.25,0 C6.94,0 7.5,0.494666667 7.5,1.10416667 L7.5,51.8958333 C7.5,52.5053333 6.94,53 6.25,53 L6.25,53 L6.25,53 Z" id="Shape"></path>
                    <path d="M36.25,41.9583333 L13.75,41.9583333 C13.06,41.9583333 12.5,41.4636667 12.5,40.8541667 L12.5,34.2291667 C12.5,33.6196667 13.06,33.125 13.75,33.125 L36.25,33.125 C36.94,33.125 37.5,33.6196667 37.5,34.2291667 L37.5,40.8541667 C37.5,41.4636667 36.94,41.9583333 36.25,41.9583333 L36.25,41.9583333 L36.25,41.9583333 Z M15,39.75 L35,39.75 L35,35.3333333 L15,35.3333333 L15,39.75 L15,39.75 Z" id="Shape"></path>
                    <path d="M43.75,15.4583333 L13.75,15.4583333 C13.06,15.4583333 12.5,14.9636667 12.5,14.3541667 L12.5,7.72916667 C12.5,7.11966667 13.06,6.625 13.75,6.625 L43.75,6.625 C44.44,6.625 45,7.11966667 45,7.72916667 L45,14.3541667 C45,14.9636667 44.44,15.4583333 43.75,15.4583333 L43.75,15.4583333 L43.75,15.4583333 Z M15,13.25 L42.5,13.25 L42.5,8.83333333 L15,8.83333333 L15,13.25 L15,13.25 Z" id="Shape"></path>
                    <path d="M56.25,28.7083333 L13.75,28.7083333 C13.06,28.7083333 12.5,28.2136667 12.5,27.6041667 L12.5,20.9791667 C12.5,20.3696667 13.06,19.875 13.75,19.875 L56.25,19.875 C56.94,19.875 57.5,20.3696667 57.5,20.9791667 L57.5,27.6041667 C57.5,28.2136667 56.94,28.7083333 56.25,28.7083333 L56.25,28.7083333 L56.25,28.7083333 Z M15,26.5 L55,26.5 L55,22.0833333 L15,22.0833333 L15,26.5 L15,26.5 Z" id="Shape"></path>
                </g>
                <path d="M45.9874112,37.5124094 L46.9254112,39.7244094 L48.6894112,39.7244094 L44.4054112,29.9244094 L42.7114112,29.9244094 L38.3854112,39.7244094 L40.1074112,39.7244094 L41.0454112,37.5124094 L45.9874112,37.5124094 Z M45.3574112,36.0424094 L41.6614112,36.0424094 L43.5094112,31.6884094 L45.3574112,36.0424094 Z M54.2474112,32.2204094 C52.9874112,32.2204094 52.0354112,32.6684094 51.5034112,33.7044094 L51.5034112,32.2764094 L49.8934112,32.2764094 L49.8934112,39.7244094 L51.5034112,39.7244094 L51.5034112,35.7624094 C51.6154112,34.6004094 52.3854112,33.7464094 53.6174112,33.7324094 C54.7374112,33.7324094 55.4094112,34.4184094 55.4094112,35.5384094 L55.4094112,39.7244094 L57.0194112,39.7244094 L57.0194112,35.0904094 C57.0194112,33.3124094 55.9834112,32.2204094 54.2474112,32.2204094 L54.2474112,32.2204094 Z M63.6414112,39.7244094 L65.2234112,39.7244094 L65.2094112,34.8384094 C65.1954112,33.2004094 64.1174112,32.2204094 62.1994112,32.2204094 C60.7854112,32.2204094 60.0294112,32.5424094 58.9934112,33.1584094 L59.6514112,34.2784094 C60.3934112,33.7744094 61.1354112,33.5224094 61.8494112,33.5224094 C63.0254112,33.5224094 63.6274112,34.0824094 63.6274112,35.0204094 L63.6274112,35.2444094 L61.3734112,35.2444094 C59.5814112,35.2584094 58.5594112,36.1264094 58.5594112,37.4844094 C58.5594112,38.8004094 59.5674112,39.7944094 61.1774112,39.7944094 C62.2554112,39.7944094 63.1094112,39.4724094 63.6414112,38.8144094 L63.6414112,39.7244094 Z M61.5134112,38.5204094 C60.6174112,38.5204094 60.0714112,38.0864094 60.0714112,37.4144094 C60.0714112,36.7004094 60.5614112,36.4204094 61.6114112,36.4204094 L63.6274112,36.4204094 L63.6274112,37.1064094 C63.5434112,37.9184094 62.6614112,38.5204094 61.5134112,38.5204094 L61.5134112,38.5204094 Z M69.0594112,39.7244094 L69.0594112,29.3364094 L67.4494112,29.3364094 L67.4494112,39.7244094 L69.0594112,39.7244094 Z M77.8234112,32.2764094 L76.2134112,32.2764094 L74.1414112,37.9184094 L71.9154112,32.2764094 L70.2494112,32.2764094 L73.3294112,39.6124094 L73.0774112,40.1724094 C72.8254112,40.7324094 72.4334112,40.9984094 71.9434112,40.9984094 C71.6074112,40.9984094 71.3274112,40.8864094 70.9774112,40.6344094 L70.2914112,41.8804094 C70.8094112,42.3144094 71.3414112,42.5104094 72.0134112,42.5104094 C73.1334112,42.5104094 73.9734112,41.9224094 74.4354112,40.7464094 L77.8234112,32.2764094 Z M84.6274112,33.3684094 L84.6274112,32.2904094 L78.5094112,32.2764094 L78.5094112,33.5924094 L82.6394112,33.5924094 L78.3834112,38.6324094 L78.3834112,39.7244094 L84.7534112,39.7384094 L84.7534112,38.4224094 L80.3714112,38.4084094 L84.6274112,33.3684094 Z M89.4434112,32.2204094 C87.2314112,32.2344094 85.6774112,33.7604094 85.6774112,36.0144094 C85.6774112,38.2544094 87.1894112,39.7804094 89.4854112,39.7804094 C90.7734112,39.7804094 91.8374112,39.3184094 92.5654112,38.5204094 L91.7114112,37.6104094 C91.1654112,38.1704094 90.4234112,38.4784094 89.6114112,38.4784094 C88.4354112,38.4784094 87.5534112,37.7644094 87.3014112,36.6164094 L92.9294112,36.6164094 C93.1254112,33.9284094 92.0614112,32.2204094 89.4434112,32.2204094 L89.4434112,32.2204094 Z M87.2734112,35.4404094 C87.4554112,34.2504094 88.2814112,33.5084094 89.4574112,33.5084094 C90.6754112,33.5084094 91.4734112,34.2364094 91.5294112,35.4404094 L87.2734112,35.4404094 Z" fill="#FFFFFF"></path>
            </g>
            <g id="Design" transform="translate(287.000000, 120.000000)" sketch:type="MSShapeGroup">
                <path d="M66,132 C102.450793,132 132,102.450793 132,66 C132,29.5492065 102.450793,0 66,0 C29.5492065,0 0,29.5492065 0,66 C0,102.450793 29.5492065,132 66,132 L66,132 Z" id="Oval-77-Copy-2" fill="#4A4A4A"></path>
                <g id="icon_design" transform="translate(34.000000, 54.000000)" fill="#FFFFFF">
                    <path d="M38.6804124,13.814433 L27.628866,13.814433 C26.8663093,13.814433 26.2474227,13.1955464 26.2474227,12.4329897 L26.2474227,1.3814433 C26.2474227,0.618886598 26.8663093,0 27.628866,0 L38.6804124,0 C39.0478763,0 39.3987629,0.14643299 39.6584742,0.403381443 C39.9181856,0.660329897 40.0618557,1.01397938 40.0618557,1.3814433 L40.0618557,12.4329897 C40.0618557,13.1955464 39.4346804,13.814433 38.6804124,13.814433 L38.6804124,13.814433 L38.6804124,13.814433 Z M29.0103093,11.0515464 L37.2989691,11.0515464 L37.2989691,2.7628866 L29.0103093,2.7628866 L29.0103093,11.0515464 L29.0103093,11.0515464 Z" id="Shape"></path>
                    <path d="M9.67010309,5.5257732 L26.2474227,5.5257732 L26.2474227,8.28865979 L9.67010309,8.28865979 L9.67010309,5.5257732 L9.67010309,5.5257732 Z" id="Shape"></path>
                    <path d="M40.0618557,5.5257732 L56.6391753,5.5257732 L56.6391753,8.28865979 L40.0618557,8.28865979 L40.0618557,5.5257732 L40.0618557,5.5257732 Z" id="Shape"></path>
                    <path d="M58.0786392,11.0515464 C55.7909691,11.0515464 53.9343093,9.19212371 53.9343093,6.90721649 C53.9343093,4.62230928 55.7909691,2.7628866 58.0786392,2.7628866 C60.3607835,2.7628866 62.2229691,4.62230928 62.2229691,6.90721649 C62.2229691,9.19212371 60.3635464,11.0515464 58.0786392,11.0515464 L58.0786392,11.0515464 L58.0786392,11.0515464 Z M58.0786392,5.5257732 C57.3160825,5.5257732 56.6971959,6.14742268 56.6971959,6.90721649 C56.6971959,7.66701031 57.3160825,8.28865979 58.0786392,8.28865979 C58.838433,8.28865979 59.4600825,7.66701031 59.4600825,6.90721649 C59.4600825,6.14742268 58.8411959,5.5257732 58.0786392,5.5257732 L58.0786392,5.5257732 L58.0786392,5.5257732 Z" id="Shape"></path>
                    <path d="M8.34668041,11.0515464 C6.0617732,11.0515464 4.20235052,9.19212371 4.20235052,6.90721649 C4.20235052,4.62230928 6.0617732,2.7628866 8.34668041,2.7628866 C10.6315876,2.7628866 12.4910103,4.62230928 12.4910103,6.90721649 C12.4910103,9.19212371 10.6315876,11.0515464 8.34668041,11.0515464 L8.34668041,11.0515464 L8.34668041,11.0515464 Z M8.34668041,5.5257732 C7.58412371,5.5257732 6.96523711,6.14742268 6.96523711,6.90721649 C6.96523711,7.66701031 7.58412371,8.28865979 8.34668041,8.28865979 C9.10923711,8.28865979 9.72812371,7.66701031 9.72812371,6.90721649 C9.72812371,6.14742268 9.10647423,5.5257732 8.34668041,5.5257732 L8.34668041,5.5257732 L8.34668041,5.5257732 Z" id="Shape"></path>
                    <path d="M64.9278351,41.443299 C64.1680412,41.443299 63.5463918,40.8216495 63.5463918,40.0618557 C63.5463918,25.2693608 52.9921649,12.6816495 38.4428041,10.1287423 C37.6940619,9.99612371 37.1856907,9.28053608 37.3210722,8.52903093 C37.4564536,7.77752577 38.1637526,7.27468041 38.9180206,7.40729897 C54.7880412,10.1895258 66.3092784,23.9238351 66.3092784,40.0590928 C66.3092784,40.8216495 65.6876289,41.443299 64.9278351,41.443299 L64.9278351,41.443299 L64.9278351,41.443299 Z" id="Shape"></path>
                    <path d="M1.3814433,41.443299 C0.618886598,41.443299 0,40.8216495 0,40.0618557 C0,23.9238351 11.5157113,10.1895258 27.3912577,7.41006186 C28.1427629,7.2774433 28.8583505,7.78028866 28.9909691,8.53179381 C29.1208247,9.28329897 28.6207423,9.9988866 27.8692371,10.1315052 C13.3226392,12.6844124 2.7628866,25.2693608 2.7628866,40.0646186 C2.7628866,40.8216495 2.14123711,41.443299 1.3814433,41.443299 L1.3814433,41.443299 L1.3814433,41.443299 Z" id="Shape"></path>
                </g>
                <path d="M43.0371371,27.9690289 L43.0371371,37.7690289 L47.0131371,37.7690289 C49.9811371,37.7690289 52.1231371,35.6970289 52.1231371,32.8690289 C52.1231371,30.0270289 49.9951371,27.9690289 47.0551371,27.9690289 L43.0371371,27.9690289 Z M44.6891371,29.4530289 L47.0271371,29.4530289 C48.9591371,29.4530289 50.4571371,30.8810289 50.4571371,32.8830289 C50.4571371,34.8710289 49.0011371,36.2850289 47.0971371,36.2850289 L44.6891371,36.2850289 L44.6891371,29.4530289 Z M56.8551371,30.2650289 C54.6431371,30.2790289 53.0891371,31.8050289 53.0891371,34.0590289 C53.0891371,36.2990289 54.6011371,37.8250289 56.8971371,37.8250289 C58.1851371,37.8250289 59.2491371,37.3630289 59.9771371,36.5650289 L59.1231371,35.6550289 C58.5771371,36.2150289 57.8351371,36.5230289 57.0231371,36.5230289 C55.8471371,36.5230289 54.9651371,35.8090289 54.7131371,34.6610289 L60.3411371,34.6610289 C60.5371371,31.9730289 59.4731371,30.2650289 56.8551371,30.2650289 L56.8551371,30.2650289 Z M54.6851371,33.4850289 C54.8671371,32.2950289 55.6931371,31.5530289 56.8691371,31.5530289 C58.0871371,31.5530289 58.8851371,32.2810289 58.9411371,33.4850289 L54.6851371,33.4850289 Z M64.2471371,30.2510289 C62.8191371,30.2510289 61.5031371,30.8950289 61.5031371,32.4070289 C61.4891371,35.0950289 65.4091371,34.2410289 65.4091371,35.7670289 C65.4091371,36.3270289 64.8771371,36.5650289 64.1911371,36.5650289 C63.3791371,36.5650289 62.3431371,36.2150289 61.6991371,35.6410289 L61.1251371,36.7890289 C61.8671371,37.4610289 63.0291371,37.8250289 64.1211371,37.8250289 C65.6191371,37.8250289 66.9771371,37.1390289 66.9771371,35.6130289 C66.9911371,32.9110289 63.0291371,33.6530289 63.0291371,32.2810289 C63.0291371,31.7490289 63.4911371,31.5390289 64.1211371,31.5390289 C64.7791371,31.5390289 65.6051371,31.7910289 66.2631371,32.1970289 L66.8511371,31.0070289 C66.1791371,30.5310289 65.1851371,30.2510289 64.2471371,30.2510289 L64.2471371,30.2510289 Z M69.3991371,27.2130289 C68.8671371,27.2130289 68.4611371,27.6190289 68.4611371,28.1930289 C68.4611371,28.7530289 68.8671371,29.1590289 69.3991371,29.1590289 C69.9311371,29.1590289 70.3371371,28.7530289 70.3371371,28.1930289 C70.3371371,27.6190289 69.9311371,27.2130289 69.3991371,27.2130289 L69.3991371,27.2130289 Z M70.1971371,37.7690289 L70.1971371,30.3210289 L68.6011371,30.3210289 L68.6011371,37.7690289 L70.1971371,37.7690289 Z M79.2971371,30.3210289 L77.7011371,30.3210289 L77.7011371,31.5250289 C77.1831371,30.7130289 76.3291371,30.2510289 75.1811371,30.2650289 C73.2071371,30.2790289 71.8771371,31.7070289 71.8771371,33.8070289 C71.8771371,35.9490289 73.2211371,37.4050289 75.2371371,37.4050289 C76.3571371,37.4050289 77.1971371,36.9570289 77.7011371,36.1450289 L77.7011371,37.0830289 C77.7011371,38.3710289 76.7771371,39.1970289 75.3631371,39.1970289 C74.4531371,39.1970289 73.7251371,38.9030289 73.0251371,38.3850289 L72.3391371,39.5470289 C73.2491371,40.1630289 74.2711371,40.5270289 75.4331371,40.5270289 C77.7711371,40.5270289 79.2971371,39.1830289 79.2971371,37.0410289 L79.2971371,30.3210289 Z M75.5591371,36.1450289 C74.2711371,36.1450289 73.4031371,35.1930289 73.3891371,33.8490289 C73.4031371,32.5190289 74.2851371,31.5670289 75.5591371,31.5670289 C76.8191371,31.5670289 77.7011371,32.5050289 77.7011371,33.8490289 C77.7011371,35.1930289 76.8191371,36.1450289 75.5591371,36.1450289 L75.5591371,36.1450289 Z M85.8911371,30.2650289 C84.6311371,30.2650289 83.6791371,30.7130289 83.1471371,31.7490289 L83.1471371,30.3210289 L81.5371371,30.3210289 L81.5371371,37.7690289 L83.1471371,37.7690289 L83.1471371,33.8070289 C83.2591371,32.6450289 84.0291371,31.7910289 85.2611371,31.7770289 C86.3811371,31.7770289 87.0531371,32.4630289 87.0531371,33.5830289 L87.0531371,37.7690289 L88.6631371,37.7690289 L88.6631371,33.1350289 C88.6631371,31.3570289 87.6271371,30.2650289 85.8911371,30.2650289 L85.8911371,30.2650289 Z" fill="#FFFFFF"></path>
            </g>
            <g id="Design-Copy" transform="translate(16.000000, 421.000000)" sketch:type="MSShapeGroup">
                <path d="M66,132 C102.450793,132 132,102.450793 132,66 C132,29.5492065 102.450793,0 66,0 C29.5492065,0 0,29.5492065 0,66 C0,102.450793 29.5492065,132 66,132 L66,132 Z" id="Oval-77-Copy-2" fill="#4A4A4A"></path>
                <g id="Group" transform="translate(40.000000, 62.000000)" fill="#FFFFFF">
                    <path d="M48.2671875,43.3494792 L1.7328125,43.3494792 C0.978645833,43.3494792 0.3671875,42.7375 0.3671875,41.984375 L0.3671875,8.85104167 C0.3671875,8.096875 0.978125,7.48541667 1.7328125,7.48541667 L48.2671875,7.48541667 C49.0208333,7.48541667 49.6328125,8.096875 49.6328125,8.85104167 L49.6328125,41.984375 C49.6328125,42.7380208 49.0208333,43.3494792 48.2671875,43.3494792 L48.2671875,43.3494792 L48.2671875,43.3494792 Z M3.09791667,40.6182292 L46.9015625,40.6182292 L46.9015625,10.2166667 L3.09791667,10.2166667 L3.09791667,40.6182292 L3.09791667,40.6182292 Z" id="Shape"></path>
                    <path d="M48.2671875,10.2166667 L1.7328125,10.2166667 C0.978645833,10.2166667 0.3671875,9.60572917 0.3671875,8.85104167 L0.3671875,1.765625 C0.3671875,1.01145833 0.978125,0.4 1.7328125,0.4 L48.2671875,0.4 C49.0208333,0.4 49.6328125,1.0109375 49.6328125,1.765625 L49.6328125,8.85104167 C49.6328125,9.60520833 49.0208333,10.2166667 48.2671875,10.2166667 L48.2671875,10.2166667 L48.2671875,10.2166667 Z M3.09791667,7.4859375 L46.9015625,7.4859375 L46.9015625,3.13125 L3.09791667,3.13125 L3.09791667,7.4859375 L3.09791667,7.4859375 Z" id="Shape"></path>
                    <circle id="Oval" cx="5.74166667" cy="5.30833333" r="0.955208333"></circle>
                    <circle id="Oval" cx="8.59947917" cy="5.30833333" r="0.9546875"></circle>
                    <circle id="Oval" cx="11.4567708" cy="5.30833333" r="0.955208333"></circle>
                    <g id="Shape" transform="translate(13.020833, 18.229167)">
                        <path d="M5.11197917,11.571875 C4.80625,11.571875 4.50104167,11.4546875 4.2671875,11.2213542 L0.549479167,7.50416667 C0.0828125,7.0375 0.0828125,6.28072917 0.549479167,5.8140625 L4.26041667,2.10260417 C4.72708333,1.6359375 5.48333333,1.6359375 5.95052083,2.10260417 C6.4171875,2.56927083 6.4171875,3.32552083 5.95052083,3.7921875 L3.08385417,6.65989583 L5.95677083,9.5328125 C6.4234375,9.99947917 6.4234375,10.7557292 5.95677083,11.221875 C5.7234375,11.4546875 5.41770833,11.571875 5.11197917,11.571875 L5.11197917,11.571875 L5.11197917,11.571875 Z"></path>
                        <path d="M18.8515625,11.571875 C18.5458333,11.571875 18.2395833,11.4546875 18.0067708,11.2213542 C17.5401042,10.7546875 17.5401042,9.9984375 18.0067708,9.53229167 L20.8739583,6.66510417 L18,3.79166667 C17.5338542,3.325 17.5338542,2.56927083 18,2.10208333 C18.4666667,1.63541667 19.2239583,1.63541667 19.6895833,2.10208333 L23.4078125,5.81979167 C23.6322917,6.04375 23.7583333,6.34739583 23.7583333,6.66458333 C23.7583333,6.98125 23.6322917,7.28489583 23.4078125,7.50885417 L19.6958333,11.2208333 C19.4625,11.4546875 19.1572917,11.571875 18.8515625,11.571875 L18.8515625,11.571875 L18.8515625,11.571875 Z"></path>
                        <path d="M10.2671875,14.3317708 C10.1692708,14.3317708 10.0692708,14.3203125 9.9703125,14.2947917 C9.33072917,14.1317708 8.9453125,13.48125 9.10833333,12.8416667 L12.1447917,0.945833333 C12.3083333,0.30625 12.9619792,-0.0786458333 13.5979167,0.0833333333 C14.2380208,0.246354167 14.6239583,0.897395833 14.4609375,1.53697917 L11.4239583,13.4328125 C11.2859375,13.9723958 10.8,14.3317708 10.2671875,14.3317708 L10.2671875,14.3317708 L10.2671875,14.3317708 Z"></path>
                    </g>
                </g>
                <path d="M32.0051371,34.9361943 L32.0051371,44.7361943 L33.6571371,44.7361943 L33.6571371,41.7821943 L35.9111371,41.7821943 C38.3751371,41.7821943 39.7891371,40.4941943 39.7891371,38.2821943 C39.7891371,36.1541943 38.3751371,34.9361943 35.9111371,34.9361943 L32.0051371,34.9361943 Z M33.6571371,36.4201943 L35.8411371,36.4201943 C37.3531371,36.4201943 38.2071371,37.0361943 38.2071371,38.3241943 C38.2071371,39.6541943 37.3531371,40.2981943 35.8411371,40.2981943 L33.6571371,40.2981943 L33.6571371,36.4201943 Z M42.9391371,37.2881943 L41.3291371,37.2881943 L41.3291371,44.7361943 L42.9391371,44.7361943 L42.9391371,40.8441943 C43.0651371,39.5701943 44.0171371,38.6881943 45.5151371,38.7721943 L45.5151371,37.2321943 C44.3391371,37.2321943 43.4431371,37.7641943 42.9391371,38.7721943 L42.9391371,37.2881943 Z M50.0371371,37.2321943 C47.7271371,37.2321943 46.1451371,38.7581943 46.1451371,41.0121943 C46.1451371,43.2521943 47.7271371,44.7921943 50.0371371,44.7921943 C52.3331371,44.7921943 53.9151371,43.2521943 53.9151371,41.0121943 C53.9151371,38.7581943 52.3331371,37.2321943 50.0371371,37.2321943 L50.0371371,37.2321943 Z M50.0371371,38.6181943 C51.3671371,38.6181943 52.3051371,39.5981943 52.3051371,41.0261943 C52.3051371,42.4681943 51.3671371,43.4481943 50.0371371,43.4481943 C48.6931371,43.4481943 47.7551371,42.4681943 47.7551371,41.0261943 C47.7551371,39.5981943 48.6931371,38.6181943 50.0371371,38.6181943 L50.0371371,38.6181943 Z M59.4031371,43.0281943 C58.9691371,43.2381943 58.6191371,43.3501943 58.2831371,43.3501943 C57.7791371,43.3501943 57.4851371,43.1121943 57.4851371,42.3421943 L57.4851371,38.7721943 L59.6831371,38.7721943 L59.6831371,37.5681943 L57.4851371,37.5681943 L57.4851371,35.5241943 L55.8891371,35.5241943 L55.8891371,37.5681943 L54.8391371,37.5681943 L54.8391371,38.7721943 L55.8891371,38.7721943 L55.8891371,42.6361943 C55.8891371,44.1621943 56.8551371,44.8061943 57.9751371,44.8061943 C58.6051371,44.8061943 59.2211371,44.6101943 59.8091371,44.2601943 L59.4031371,43.0281943 Z M64.4011371,37.2321943 C62.0911371,37.2321943 60.5091371,38.7581943 60.5091371,41.0121943 C60.5091371,43.2521943 62.0911371,44.7921943 64.4011371,44.7921943 C66.6971371,44.7921943 68.2791371,43.2521943 68.2791371,41.0121943 C68.2791371,38.7581943 66.6971371,37.2321943 64.4011371,37.2321943 L64.4011371,37.2321943 Z M64.4011371,38.6181943 C65.7311371,38.6181943 66.6691371,39.5981943 66.6691371,41.0261943 C66.6691371,42.4681943 65.7311371,43.4481943 64.4011371,43.4481943 C63.0571371,43.4481943 62.1191371,42.4681943 62.1191371,41.0261943 C62.1191371,39.5981943 63.0571371,38.6181943 64.4011371,38.6181943 L64.4011371,38.6181943 Z M73.7671371,43.0281943 C73.3331371,43.2381943 72.9831371,43.3501943 72.6471371,43.3501943 C72.1431371,43.3501943 71.8491371,43.1121943 71.8491371,42.3421943 L71.8491371,38.7721943 L74.0471371,38.7721943 L74.0471371,37.5681943 L71.8491371,37.5681943 L71.8491371,35.5241943 L70.2531371,35.5241943 L70.2531371,37.5681943 L69.2031371,37.5681943 L69.2031371,38.7721943 L70.2531371,38.7721943 L70.2531371,42.6361943 C70.2531371,44.1621943 71.2191371,44.8061943 72.3391371,44.8061943 C72.9691371,44.8061943 73.5851371,44.6101943 74.1731371,44.2601943 L73.7671371,43.0281943 Z M81.9711371,37.2881943 L80.3611371,37.2881943 L78.2891371,42.9301943 L76.0631371,37.2881943 L74.3971371,37.2881943 L77.4771371,44.6241943 L77.2251371,45.1841943 C76.9731371,45.7441943 76.5811371,46.0101943 76.0911371,46.0101943 C75.7551371,46.0101943 75.4751371,45.8981943 75.1251371,45.6461943 L74.4391371,46.8921943 C74.9571371,47.3261943 75.4891371,47.5221943 76.1611371,47.5221943 C77.2811371,47.5221943 78.1211371,46.9341943 78.5831371,45.7581943 L81.9711371,37.2881943 Z M87.3751371,37.2321943 C86.2131371,37.2321943 85.3171371,37.7081943 84.7711371,38.5761943 L84.7711371,37.2881943 L83.1611371,37.2881943 L83.1611371,47.4521943 L84.7711371,47.4521943 L84.7711371,43.4481943 C85.3171371,44.3161943 86.2131371,44.7921943 87.4031371,44.7921943 C89.5311371,44.7921943 90.9311371,43.2661943 90.9311371,41.0401943 C90.9311371,38.7721943 89.4891371,37.2321943 87.3751371,37.2321943 L87.3751371,37.2321943 Z M87.0391371,43.4201943 C85.7091371,43.4201943 84.7711371,42.4261943 84.7711371,40.9841943 C84.7711371,39.5841943 85.7091371,38.5761943 87.0391371,38.5761943 C88.3691371,38.5761943 89.3071371,39.5981943 89.3071371,40.9841943 C89.3071371,42.4121943 88.3691371,43.4201943 87.0391371,43.4201943 L87.0391371,43.4201943 Z M95.6771371,37.2321943 C93.4651371,37.2461943 91.9111371,38.7721943 91.9111371,41.0261943 C91.9111371,43.2661943 93.4231371,44.7921943 95.7191371,44.7921943 C97.0071371,44.7921943 98.0711371,44.3301943 98.7991371,43.5321943 L97.9451371,42.6221943 C97.3991371,43.1821943 96.6571371,43.4901943 95.8451371,43.4901943 C94.6691371,43.4901943 93.7871371,42.7761943 93.5351371,41.6281943 L99.1631371,41.6281943 C99.3591371,38.9401943 98.2951371,37.2321943 95.6771371,37.2321943 L95.6771371,37.2321943 Z M93.5071371,40.4521943 C93.6891371,39.2621943 94.5151371,38.5201943 95.6911371,38.5201943 C96.9091371,38.5201943 97.7071371,39.2481943 97.7631371,40.4521943 L93.5071371,40.4521943 Z" id="Prototype" fill="#FFFFFF"></path>
            </g>
        </g>
    </g>
</svg>