<?xml version="1.0" encoding="UTF-8" standalone="no"?>
<svg width="239px" height="36px" viewBox="0 0 239 36" version="1.1" xmlns="http://www.w3.org/2000/svg" xmlns:xlink="http://www.w3.org/1999/xlink" xmlns:sketch="http://www.bohemiancoding.com/sketch/ns">
    <!-- Generator: Sketch 3.3.3 (12081) - http://www.bohemiancoding.com/sketch -->
    <title>Logo</title>
    <desc>Created with Sketch.</desc>
    <defs></defs>
    <g id="Symbols" stroke="none" stroke-width="1" fill="none" fill-rule="evenodd" sketch:type="MSPage">
        <g id="Homepage" sketch:type="MSArtboardGroup" transform="translate(-773.000000, -2395.000000)" fill="#FFFFFF">
            <g id="Module-2-Copy" sketch:type="MSLayerGroup" transform="translate(-60.000000, 2228.000000)">
                <g id="Logo" transform="translate(833.000000, 166.000000)" sketch:type="MSShapeGroup">
                    <path d="M0.302097902,1.6563147 L0.302097902,36.4389234 L15.406993,36.4389234 C23.3622378,36.4389234 28.0951049,32.9109731 28.0951049,26.9979296 C28.0951049,22.2277433 25.1244755,18.9482402 20.0391608,18.2028986 C24.1678322,17.3581781 26.5342657,14.426501 26.5342657,10.3519669 C26.5342657,4.88612836 22.2545455,1.6563147 15.1552448,1.6563147 L0.302097902,1.6563147 Z M4.33006993,5.48240166 L14.9538462,5.48240166 C19.6867133,5.48240166 22.4559441,7.4699793 22.4559441,10.9979296 C22.4559441,14.6252588 19.6867133,16.6625259 14.9538462,16.6625259 L4.33006993,16.6625259 L4.33006993,5.48240166 Z M4.33006993,20.4389234 L14.9538462,20.4389234 C20.6937063,20.4389234 24.0167832,22.6749482 24.0167832,26.4513458 C24.0167832,30.426501 20.6937063,32.6625259 14.9538462,32.6625259 L4.33006993,32.6625259 L4.33006993,20.4389234 Z M63.2345836,27.6438923 L67.1618564,36.4389234 L71.5422759,36.4389234 L55.7828354,1.6563147 L51.6038144,1.6563147 L35.7940242,36.4389234 L40.0737445,36.4389234 L44.0010172,27.6438923 L63.2345836,27.6438923 Z M61.5226955,23.8178054 L45.7129053,23.8178054 L53.5674508,6.17805383 L61.5226955,23.8178054 Z M134.621233,1.55693582 C124.299555,1.55693582 116.142912,9.20910973 116.142912,19.047619 C116.142912,28.8364389 124.299555,36.6376812 134.621233,36.6376812 C144.892562,36.6376812 153.049205,28.8364389 153.049205,19.047619 C153.049205,9.25879917 144.892562,1.55693582 134.621233,1.55693582 L134.621233,1.55693582 Z M134.621233,5.33333333 C142.475779,5.33333333 148.920534,11.3954451 148.920534,19.047619 C148.920534,26.699793 142.475779,32.8115942 134.621233,32.8115942 C126.766688,32.8115942 120.221233,26.699793 120.221233,19.047619 C120.221233,11.3954451 126.766688,5.33333333 134.621233,5.33333333 L134.621233,5.33333333 Z M179.276796,1.55693582 C168.955118,1.55693582 160.798474,9.20910973 160.798474,19.047619 C160.798474,28.8364389 168.955118,36.6376812 179.276796,36.6376812 C189.548125,36.6376812 197.704768,28.8364389 197.704768,19.047619 C197.704768,9.25879917 189.548125,1.55693582 179.276796,1.55693582 L179.276796,1.55693582 Z M179.276796,5.33333333 C187.131342,5.33333333 193.576097,11.3954451 193.576097,19.047619 C193.576097,26.699793 187.131342,32.8115942 179.276796,32.8115942 C171.422251,32.8115942 164.876796,26.699793 164.876796,19.047619 C164.876796,11.3954451 171.422251,5.33333333 179.276796,5.33333333 L179.276796,5.33333333 Z M238.936555,36.4389234 L238.936555,1.6563147 L234.958932,1.6563147 L234.958932,29.63147 L213.812079,1.6563147 L209.633058,1.6563147 L209.633058,36.4389234 L213.66103,36.4389234 L213.66103,8.51345756 L234.807883,36.4389234 L238.936555,36.4389234 Z" id="BAZOON-Copy-2"></path>
                    <rect id="Rectangle-44" x="78.8811189" y="1.6563147" width="28.5314685" height="3.97515544"></rect>
                    <rect id="Rectangle-44-Copy" transform="translate(93.146853, 34.120123) scale(1, -1) translate(-93.146853, -34.120123) " x="78.8811189" y="32.1325456" width="28.5314685" height="3.97515544"></rect>
                </g>
            </g>
        </g>
    </g>
</svg>