<?xml version="1.0" encoding="UTF-8" standalone="no"?>
<svg width="100px" height="35px" viewBox="0 0 100 35" version="1.1" xmlns="http://www.w3.org/2000/svg" xmlns:xlink="http://www.w3.org/1999/xlink" xmlns:sketch="http://www.bohemiancoding.com/sketch/ns">
    <!-- Generator: Sketch 3.3.3 (12081) - http://www.bohemiancoding.com/sketch -->
    <title>django-logo-positive</title>
    <desc>Created with Sketch.</desc>
    <defs></defs>
    <g id="Symbols" stroke="none" stroke-width="1" fill="none" fill-rule="evenodd" sketch:type="MSPage">
        <g id="Homepage" sketch:type="MSArtboardGroup" transform="translate(-815.000000, -2896.000000)" fill="#092E20">
            <g id="Module-5" sketch:type="MSLayerGroup" transform="translate(176.000000, 2721.000000)">
                <g id="django-logo-positive" transform="translate(639.000000, 175.000000)" sketch:type="MSShapeGroup">
                    <g id="Group">
                        <path d="M11.776659,0 L17.2393593,0 L17.2393593,25.2851259 C14.4370709,25.8171625 12.3796339,26.0299771 10.1450801,26.0299771 C3.47620137,26.0297483 0,23.015103 0,17.2329519 C0,11.6638444 3.68924485,8.04599542 9.4,8.04599542 C10.2867277,8.04599542 10.9606407,8.11670481 11.776659,8.32951945 L11.776659,0 L11.776659,0 Z M11.776659,12.7276888 C11.1382151,12.515103 10.6061785,12.4441648 9.93226545,12.4441648 C7.16544622,12.4441648 5.56910755,14.1469108 5.56910755,17.1263158 C5.56910755,20.0352403 7.09450801,21.6313501 9.89679634,21.6313501 C10.4995423,21.6313501 10.9963387,21.595881 11.776659,21.4897025 L11.776659,12.7276888 L11.776659,12.7276888 Z" id="Shape"></path>
                        <path d="M25.9295195,8.43592677 L25.9295195,21.0990847 C25.9295195,25.4622426 25.6102975,27.5549199 24.6526316,29.3640732 C23.7656751,31.1025172 22.5949657,32.2018307 20.1830664,33.4080092 L15.1105263,30.995881 C17.5226545,29.8608696 18.693135,28.8679634 19.4379863,27.3421053 C20.2185355,25.7814645 20.4670481,23.9723112 20.4670481,19.219222 L20.4670481,8.43592677 L25.9295195,8.43592677 L25.9295195,8.43592677 Z M20.4670481,0.0290617849 L25.9295195,0.0290617849 L25.9295195,5.63363844 L20.4670481,5.63363844 L20.4670481,0.0290617849 L20.4670481,0.0290617849 Z" id="Shape"></path>
                        <path d="M29.2290618,9.67734554 C31.6414188,8.54256293 33.9469108,8.04599542 36.4654462,8.04599542 C39.2677346,8.04599542 41.1121281,8.79061785 41.9281465,10.2450801 C42.389016,11.0608696 42.5308924,12.1249428 42.5308924,14.3954233 L42.5308924,25.4977117 C40.0830664,25.8524027 36.997254,26.1009153 34.7272311,26.1009153 C30.1514874,26.1009153 28.0938215,24.504119 28.0938215,20.9572082 C28.0938215,17.126087 30.8251716,15.3526316 37.5295195,14.784897 L37.5295195,13.5789474 C37.5295195,12.5858124 37.0329519,12.2313501 35.6494279,12.2313501 C33.6276888,12.2313501 31.3574371,12.7988558 29.228833,13.898627 L29.228833,9.67734554 L29.2290618,9.67734554 Z M37.7778032,18.3679634 C34.1594966,18.7226545 32.989016,19.290389 32.989016,20.7091533 C32.989016,21.7732265 33.6631579,22.2697941 35.1528604,22.2697941 C35.9688787,22.2697941 36.7135011,22.1990847 37.7778032,22.0217391 L37.7778032,18.3679634 L37.7778032,18.3679634 Z" id="Shape"></path>
                        <path d="M45.1915332,9.28718535 C48.419222,8.43592677 51.0796339,8.04599542 53.7755149,8.04599542 C56.5778032,8.04599542 58.5997712,8.68421053 59.8061785,9.92585812 C60.9411899,11.0961098 61.2956522,12.3729977 61.2956522,15.1048055 L61.2956522,25.8169336 L55.8329519,25.8169336 L55.8329519,15.3176201 C55.8329519,13.2249428 55.1235698,12.4441648 53.1727689,12.4441648 C52.4279176,12.4441648 51.7540046,12.515103 50.6540046,12.8343249 L50.6540046,25.8169336 L45.1915332,25.8169336 L45.1915332,9.28718535 L45.1915332,9.28718535 Z" id="Shape"></path>
                        <path d="M63.419222,28.7967963 C65.3350114,29.7899314 67.2503432,30.2508009 69.2720824,30.2508009 C72.8544622,30.2508009 74.3798627,28.7967963 74.3798627,25.3203661 L74.3798627,25.2139588 C73.3157895,25.7457666 72.2514874,25.9588101 70.8329519,25.9588101 C66.0441648,25.9588101 62.993135,22.8018307 62.993135,17.8004577 C62.993135,11.5924485 67.4983982,8.0812357 75.4791762,8.0812357 C77.820595,8.0812357 79.9844394,8.32929062 82.6093822,8.86132723 L80.7389016,12.8016018 C79.2844394,12.517849 80.6224256,12.7636156 79.523341,12.6572082 L79.523341,13.2249428 L79.5940503,15.5302059 L79.6292906,18.5100686 C79.6647597,19.2546911 79.6647597,19.9997712 79.7004577,20.7446224 L79.7004577,22.2345538 C79.7004577,26.9169336 79.3102975,29.1160183 78.1398169,30.9249428 C76.4370709,33.5855835 73.4929062,34.8979405 69.3073227,34.8979405 C67.1789474,34.8979405 65.3347826,34.5787185 63.4189931,33.8336384 L63.4189931,28.7967963 L63.419222,28.7967963 Z M74.2736842,12.4796339 L74.0965675,12.4796339 L73.7061785,12.4796339 C72.6423341,12.4441648 71.4009153,12.7276888 70.5491991,13.2597254 C69.2370709,14.0048055 68.5627002,15.3528604 68.5627002,17.2681922 C68.5627002,19.9997712 69.910984,21.5604119 72.3228833,21.5604119 C73.0677346,21.5604119 73.6709382,21.4183066 74.3800915,21.2057208 L74.3800915,20.8153318 L74.3800915,19.3258581 C74.3800915,18.6874142 74.3448513,17.9775744 74.3448513,17.2329519 L74.309611,14.7146453 L74.273913,12.905492 L74.273913,12.4796339 L74.2736842,12.4796339 Z" id="Shape"></path>
                        <path d="M91.0897025,7.97482838 C96.5521739,7.97482838 99.8867277,11.4157895 99.8867277,16.9846682 C99.8867277,22.695881 96.4107551,26.2784897 90.8768879,26.2784897 C85.4139588,26.2784897 82.0441648,22.8375286 82.0441648,17.304119 C82.0443936,11.5572082 85.5208238,7.97482838 91.0897025,7.97482838 L91.0897025,7.97482838 Z M90.9828375,21.8796339 C93.0759725,21.8796339 94.3176201,20.1414188 94.3176201,17.1263158 C94.3176201,14.1469108 93.1114416,12.3732265 91.0189931,12.3732265 C88.8549199,12.3732265 87.6130435,14.1116705 87.6130435,17.1263158 C87.6132723,20.1416476 88.8549199,21.8796339 90.9828375,21.8796339 L90.9828375,21.8796339 Z" id="Shape"></path>
                    </g>
                </g>
            </g>
        </g>
    </g>
</svg>