<?xml version="1.0" encoding="UTF-8" standalone="no"?>
<svg width="150px" height="48px" viewBox="0 0 150 48" version="1.1" xmlns="http://www.w3.org/2000/svg" xmlns:xlink="http://www.w3.org/1999/xlink" xmlns:sketch="http://www.bohemiancoding.com/sketch/ns">
    <!-- Generator: Sketch 3.3.3 (12081) - http://www.bohemiancoding.com/sketch -->
    <title>logo_redis</title>
    <desc>Created with Sketch.</desc>
    <defs></defs>
    <g id="Symbols" stroke="none" stroke-width="1" fill="none" fill-rule="evenodd" sketch:type="MSPage">
        <g id="Homepage" sketch:type="MSArtboardGroup" transform="translate(-592.000000, -2890.000000)">
            <g id="Module-5" sketch:type="MSLayerGroup" transform="translate(176.000000, 2721.000000)">
                <g id="logo_redis" transform="translate(416.000000, 169.000000)" sketch:type="MSShapeGroup">
                    <path d="M82.0873362,14.8264192 C82.0873362,16.0116812 81.1136463,17.0695415 79.8438865,17.0695415 C78.8701965,17.0695415 78.0239083,17.32369 77.3043668,17.8739083 C76.5003275,18.3822052 75.8652838,19.1014192 75.3576419,19.9054585 C74.3417031,21.2600437 73.8343886,22.8681223 73.6224891,23.460262 L73.6224891,31.5019651 C73.6224891,32.729476 72.5646288,33.7454148 71.294869,33.7454148 C70.0673581,33.7454148 69.0517467,32.729476 69.0517467,31.5019651 L69.0517467,14.8264192 C69.0517467,13.5989083 70.0673581,12.6255459 71.294869,12.6255459 C72.5646288,12.6255459 73.6224891,13.5992358 73.6224891,14.8264192 L73.6224891,15.1228166 C73.87631,14.8264192 74.2149563,14.4881004 74.5113537,14.2762009 C75.9081878,13.3454148 77.7278384,12.5832969 79.8438865,12.6255459 C81.1136463,12.6255459 82.0873362,13.5992358 82.0873362,14.8264192 L82.0873362,14.8264192 Z" id="Shape" fill="#636466"></path>
                    <path d="M80.8460699,23.1648472 C80.8886463,17.4088428 85.3748908,12.583952 91.1728166,12.583952 C96.675,12.583952 101.03417,16.6893013 101.373144,22.4027293 L101.373144,22.6143013 C101.373144,22.6991266 101.373144,22.9103712 101.330895,22.9951965 C101.203493,24.0111354 100.314956,24.6884279 99.1296943,24.6884279 L85.6709607,24.6884279 C85.8825328,25.6621179 86.3479258,26.7622271 87.1100437,27.4817686 C87.9989083,28.4977074 89.6918122,29.2588428 91.1728166,29.385917 C92.6963974,29.5126638 94.5163755,29.1320961 95.5745633,28.3280568 C96.4631004,27.3966157 98.1985808,27.5240175 98.7487991,28.200655 C99.2990175,28.7937773 99.7221616,30.0635371 98.7487991,30.9517467 C96.6746725,32.8558952 94.1777293,33.7450873 91.1724891,33.7450873 C85.3748908,33.7034934 80.8886463,28.9208515 80.8460699,23.1648472 L80.8460699,23.1648472 Z M85.4593886,21.091048 L97.4367904,21.091048 C97.0136463,19.3981441 94.8550218,16.9012009 91.1728166,16.6048035 C87.5757642,16.7737991 85.7980349,19.3558952 85.4593886,21.091048 L85.4593886,21.091048 Z" id="Shape" fill="#636466"></path>
                    <path d="M122.934498,31.4606987 C122.934498,32.6882096 121.918559,33.7463974 120.648799,33.7463974 C119.506114,33.7463974 118.617576,32.9423581 118.405677,31.9264192 C116.797598,33.0265284 114.766048,33.7463974 112.649672,33.7463974 C106.936245,33.7463974 102.365175,28.9215066 102.365175,23.2077511 C102.365175,17.4091703 106.936245,12.5842795 112.649672,12.5842795 C114.723799,12.5842795 116.755022,13.2612445 118.320852,14.3616812 L118.320852,6.405131 C118.320852,5.17762009 119.33679,4.11943231 120.648472,4.11943231 C121.918231,4.11943231 122.93417,5.17762009 122.93417,6.405131 L122.93417,23.1651747 L122.93417,23.2077511 L122.93417,31.4606987 L122.934498,31.4606987 Z M112.65,17.1975983 C111.126419,17.1975983 109.729585,17.8323144 108.672052,18.9327511 C107.613865,19.9909389 106.978821,21.5141921 106.978821,23.2074236 C106.978821,24.8155022 107.613537,26.339083 108.672052,27.3972707 C109.729585,28.4980349 111.126419,29.1327511 112.65,29.1327511 C114.21583,29.1327511 115.570415,28.4980349 116.628275,27.3972707 C117.686135,26.3394105 118.321179,24.8155022 118.321179,23.2074236 C118.321179,21.5141921 117.686463,19.9909389 116.628275,18.9327511 C115.570415,17.8323144 114.21583,17.1975983 112.65,17.1975983 L112.65,17.1975983 Z" id="Shape" fill="#636466"></path>
                    <path d="M130.987991,7.29366812 C130.987991,8.56342795 130.014629,9.62128821 128.702293,9.62128821 C127.432533,9.62128821 126.416921,8.56342795 126.416921,7.29366812 L126.416921,6.40480349 C126.416921,5.13504367 127.432533,4.1191048 128.702293,4.1191048 C130.014629,4.1191048 130.987991,5.13504367 130.987991,6.40480349 L130.987991,7.29366812 L130.987991,7.29366812 Z M130.987991,14.9541485 L130.987991,31.4603712 C130.987991,32.730131 130.014629,33.7460699 128.702293,33.7460699 C127.432533,33.7460699 126.416921,32.730131 126.416921,31.4603712 L126.416921,14.9541485 C126.416921,13.5998908 127.432533,12.6262009 128.702293,12.6262009 C130.014956,12.6262009 130.987991,13.5998908 130.987991,14.9541485 L130.987991,14.9541485 Z" id="Shape" fill="#636466"></path>
                    <path d="M133.896288,27.691048 C134.658079,26.6757642 136.139738,26.54869 137.070524,27.3527293 C138.170961,28.2841703 140.075764,29.2568777 141.726092,29.2149563 C142.868777,29.2149563 143.926965,28.8343886 144.604258,28.410917 C145.196725,27.9029476 145.365721,27.480131 145.365721,27.1411572 C145.365721,26.9295852 145.323472,26.8450873 145.238974,26.7176856 C145.196397,26.5909389 145.027402,26.4216157 144.688428,26.2103712 C144.095961,25.7868996 142.826201,25.321179 141.30262,25.0251092 L141.260371,25.0251092 C139.948035,24.7712882 138.678275,24.4326419 137.578166,23.924345 C136.43548,23.3744541 135.419541,22.6126638 134.657751,21.4699782 C134.192358,20.7081878 133.938537,19.7770742 133.938537,18.8037118 C133.938537,16.8566594 135.038974,15.2060044 136.43548,14.1478166 C137.916812,13.1322052 139.694541,12.5819869 141.641594,12.5819869 C144.561681,12.5819869 146.63548,13.978821 147.990066,14.909607 C149.006004,15.5868996 149.302074,16.9837336 148.667031,18.0412664 C147.990066,19.0572052 146.593231,19.3536026 145.535371,18.6340611 C144.181114,17.745524 142.995852,17.0679039 141.641594,17.0679039 C140.583406,17.0679039 139.652293,17.4065502 139.102074,17.8296943 C138.551856,18.210917 138.425109,18.5918122 138.425109,18.8033843 C138.425109,18.9723799 138.425109,19.0149563 138.509607,19.1417031 C138.552183,19.2262009 138.67893,19.395524 138.975328,19.5648472 C139.525873,19.9457424 140.625983,20.3266376 142.065066,20.580786 L142.107314,20.6233624 L142.149891,20.6233624 C143.546725,20.8768559 144.858734,21.2580786 146.085917,21.8505459 C147.228603,22.3585153 148.371616,23.1625546 149.091157,24.3474891 C149.599127,25.1937773 149.895197,26.1674672 149.895197,27.1408297 C149.895197,29.2146288 148.752511,30.9501092 147.228603,32.0502183 C145.705022,33.1080786 143.800218,33.7434498 141.726419,33.7434498 C138.425437,33.7012009 135.885917,32.1776201 134.193013,30.8233624 C133.261572,30.0615721 133.134825,28.6221616 133.896288,27.691048 L133.896288,27.691048 Z" id="Shape" fill="#636466"></path>
                    <path d="M31.9820961,46.4498908 C28.7030568,48.1598253 26.881441,48.1431223 24.2911572,46.9048035 C21.7008734,45.6664847 5.31026201,39.0458515 2.35775109,37.634607 C0.8819869,36.9291485 0.106113537,36.3340611 0.106113537,35.7717249 L0.106113537,30.1401747 C-0.23600811,29.5027267 24.0097007,24.5746384 24.8895197,24.2590611 C28.3342795,23.0230349 29.5293668,22.9784934 32.460917,24.0524017 C35.3927948,25.12631 52.9218341,28.289083 55.8193231,29.3502183 C55.8193231,29.3502183 55.8180131,34.3798035 55.8180131,34.9018559 C55.8183406,35.4586245 55.1498908,36.0694323 53.6364629,36.8580786 C50.6633188,38.4078603 35.2611354,44.7406114 31.9820961,46.4498908 Z" id="Shape" fill="#A41E11"></path>
                    <path d="M53.6364629,31.2248908 C50.6633188,32.7740175 35.2611354,39.1074236 31.9820961,40.8167031 C28.7030568,42.5266376 26.881441,42.5099345 24.2911572,41.2716157 C21.7005459,40.033952 5.31026201,33.4120087 2.35775109,32.0014192 C-0.594759825,30.5901747 -0.656659389,29.6187773 2.24377729,28.4832969 C5.14388646,27.3471616 21.4444323,20.9518559 24.8898472,19.7158297 C28.334607,18.4804585 29.5296943,18.435262 32.4612445,19.5094978 C35.3931223,20.5834061 50.7032751,26.6774017 53.6004367,27.7385371 C56.4982533,28.800655 56.609607,29.6751092 53.6364629,31.2248908 L53.6364629,31.2248908 Z" id="Shape" fill="#D82C20"></path>
                    <path d="M31.9820961,37.2671397 C28.7030568,38.9764192 26.881441,38.9597162 24.2911572,37.7213974 C21.7005459,36.4837336 5.31026201,29.8624454 2.35775109,28.4512009 C0.8819869,27.7457424 0.106113537,27.15131 0.106113537,26.5889738 L0.106113537,20.9567686 C-0.690763708,19.6025091 24.2623834,15.3006586 24.8895197,15.075655 C28.3342795,13.8399563 29.5293668,13.7950873 32.460917,14.8689956 C35.3927948,15.9429039 52.9218341,19.1050218 55.8193231,20.1664847 C55.8193231,20.1664847 55.8180131,25.1960699 55.8180131,25.7187773 C55.8183406,26.2752183 55.1498908,26.8860262 53.6364629,27.6746725 C50.6633188,29.2244541 35.2611354,35.5572052 31.9820961,37.2671397 Z" id="Shape" fill="#A41E11"></path>
                    <path d="M53.6364629,22.0414847 C50.6633188,23.5912664 35.2611354,29.9240175 31.9820961,31.633952 C28.7030568,33.3432314 26.881441,33.3265284 24.2911572,32.0882096 C21.7005459,30.8505459 5.31026201,24.2289301 2.35775109,22.8180131 C-0.594759825,21.4070961 -0.656659389,20.4356987 2.24377729,19.2995633 C5.14388646,18.164083 21.4444323,11.7684498 24.8898472,10.5327511 C28.334607,9.2970524 29.5296943,9.25218341 32.4612445,10.3260917 C35.3931223,11.4 50.7032751,17.4936681 53.6004367,18.555131 C56.4982533,19.6169214 56.609607,20.4917031 53.6364629,22.0414847 L53.6364629,22.0414847 Z" id="Shape" fill="#D82C20"></path>
                    <path d="M31.9820961,27.7434498 C28.7030568,29.4527293 26.881441,29.4360262 24.2911572,28.1977074 C21.7005459,26.9600437 5.31026201,20.3384279 2.35775109,18.9275109 C0.8819869,18.2220524 0.106113537,17.6272926 0.106113537,17.0652838 L0.106113537,11.4330786 C13.3720707,11.2274913 21.7411908,6.68154868 24.8895197,5.55229258 C28.3342795,4.31626638 29.5293668,4.27172489 32.460917,5.34563319 C35.3927948,6.41954148 52.9218341,9.58165939 55.8193231,10.6431223 C55.8193231,10.6431223 55.8180131,15.6727074 55.8180131,16.1950873 C55.8183406,16.7512009 55.1498908,17.3620087 53.6364629,18.150655 C53.6364629,18.150655 35.2611354,26.0335153 31.9820961,27.7434498 Z" id="Shape" fill="#A41E11"></path>
                    <path d="M53.6364629,12.5174672 C50.6633188,14.0672489 35.2611354,20.4003275 31.9820961,22.1099345 C28.7030568,23.819214 26.881441,23.8025109 24.2911572,22.5645197 C21.7008734,21.3265284 5.31026201,14.7052402 2.35775109,13.2943231 C-0.594759825,11.8834061 -0.656659389,10.9116812 2.24377729,9.77587336 C5.14388646,8.6400655 21.4444323,2.24508734 24.8898472,1.00906114 C28.334607,-0.226965066 29.5296943,-0.27150655 32.4612445,0.802729258 C35.3931223,1.87663755 50.7032751,7.97030568 53.6004367,9.03176856 C56.4982533,10.0929039 56.609607,10.9680131 53.6364629,12.5174672 L53.6364629,12.5174672 Z" id="Shape" fill="#D82C20"></path>
                    <path d="M35.2631004,7.09388646 L30.4355895,7.59497817 L29.3548035,10.1954148 L27.6091703,7.29366812 L22.0349345,6.79257642 L26.1943231,5.29257642 L24.9465066,2.99017467 L28.8406114,4.51310044 L32.5120087,3.31113537 L31.5196507,5.69213974 L35.2631004,7.09388646 Z" id="Shape" fill="#FFFFFF"></path>
                    <path d="M29.0665939,19.709607 L20.0567686,15.9727074 L32.9672489,13.9912664 L29.0665939,19.709607 Z" id="Shape" fill="#FFFFFF"></path>
                    <ellipse id="Oval" fill="#FFFFFF" cx="16.5753275" cy="11.2139738" rx="6.90032751" ry="2.67478166"></ellipse>
                    <path d="M40.9683406,7.80458515 L48.6091703,10.8242358 L40.9748908,13.8406114 L40.9683406,7.80458515 Z" id="Shape" fill="#7A0C00"></path>
                    <path d="M32.5152838,11.1484716 L40.9683406,7.80458515 L40.9748908,13.8406114 L40.1462882,14.1648472 L32.5152838,11.1484716 Z" id="Shape" fill="#AD2115"></path>
                </g>
            </g>
        </g>
    </g>
</svg>