<?xml version="1.0" encoding="UTF-8" standalone="no"?>
<svg width="150px" height="41px" viewBox="0 0 150 41" version="1.1" xmlns="http://www.w3.org/2000/svg" xmlns:xlink="http://www.w3.org/1999/xlink" xmlns:sketch="http://www.bohemiancoding.com/sketch/ns">
    <!-- Generator: Sketch 3.3.3 (12081) - http://www.bohemiancoding.com/sketch -->
    <title>logo_node</title>
    <desc>Created with Sketch.</desc>
    <defs></defs>
    <g id="Symbols" stroke="none" stroke-width="1" fill="none" fill-rule="evenodd" sketch:type="MSPage">
        <g id="Homepage" sketch:type="MSArtboardGroup" transform="translate(-272.000000, -2785.000000)">
            <g id="Module-5" sketch:type="MSLayerGroup" transform="translate(176.000000, 2721.000000)">
                <g id="logo_node" transform="translate(171.000000, 84.448498) scale(1, -1) translate(-171.000000, -84.448498) translate(96.000000, 64.250000)" sketch:type="MSShapeGroup">
                    <path d="M22.4903433,18.9137607 C22.4903433,19.3497586 22.2612393,19.7505901 21.8846298,19.9668187 L11.8508047,25.7413358 C11.6810086,25.8409603 11.490853,25.8928648 11.2981223,25.9006706 L11.1943938,25.9006706 C11.0029506,25.8928648 10.8124732,25.8409603 10.6405848,25.7413358 L0.606684013,19.9668187 C0.23261427,19.7505901 0,19.3497586 0,18.9137607 L0.0220041309,3.36473981 C0.0220041309,3.14847103 0.134225054,2.94729077 0.324403165,2.8413573 C0.510809549,2.72976663 0.740909067,2.72976663 0.926684549,2.8413573 L6.8894823,6.25576448 C7.26669528,6.47988734 7.49647532,6.87502146 7.49647532,7.30724517 L7.49647532,14.5717275 C7.49647532,15.0049088 7.72594957,15.4056599 8.10160944,15.6210032 L10.6405848,17.0833423 C10.8297747,17.1927039 11.036588,17.2461373 11.2478273,17.2461373 C11.454721,17.2461373 11.6668455,17.1927039 11.8508047,17.0833423 L14.3891363,15.6210032 C14.76478,15.4056599 14.9951717,15.0049088 14.9951717,14.5717275 L14.9951717,7.30724517 C14.9951717,6.87502146 15.2277361,6.47737661 15.6024946,6.25576448 L21.564029,2.8413573 C21.7510461,2.72976663 21.9842543,2.72976663 22.1697425,2.8413573 C22.3545869,2.94729077 22.4708691,3.14847103 22.4708691,3.36473981 L22.4903433,18.9137607" id="path22" fill="#404137"></path>
                    <path d="M75.1376878,10.8175429 C75.1376878,10.7093884 75.0798283,10.6091202 74.9858369,10.5553648 L71.5396996,8.56866953 C71.44603,8.51491416 71.330633,8.51491416 71.2369635,8.56866953 L67.7905043,10.5553648 C67.6968348,10.6091202 67.6389753,10.7093884 67.6389753,10.8175429 L67.6389753,14.7971298 C67.6389753,14.9049624 67.6968348,15.0052307 67.7901824,15.0596298 L71.2366416,17.0500268 C71.330633,17.104426 71.44603,17.104426 71.5400215,17.0500268 L74.9864807,15.0596298 C75.0798283,15.0052307 75.1376878,14.9049624 75.1376878,14.7971298 L75.1376878,10.8175429 L75.1376878,10.8175429 Z M76.06875,40.2881974 C75.8810891,40.3928916 75.651985,40.390397 75.4664968,40.2815987 C75.2813305,40.1728809 75.1675429,39.9738734 75.1675429,39.7591738 L75.1675429,24.3604345 C75.1675429,24.2092275 75.086427,24.0690451 74.9556599,23.9932403 C74.8245708,23.9171942 74.6627414,23.9171942 74.5313305,23.9932403 L72.0181062,25.4410944 C71.6434281,25.6570815 71.1820011,25.6567597 70.8072425,25.440853 L60.7693133,19.6477468 C60.3939914,19.4311964 60.1632779,19.0313305 60.1632779,18.5981491 L60.1632779,7.00987661 C60.1632779,6.57702521 60.3939914,6.17686159 60.7689914,5.95996513 L70.8063573,0.162830472 C71.1816792,-0.0537528702 71.64375,-0.0537528702 72.0190719,0.162830472 L82.0582082,5.95996513 C82.4332082,6.17686159 82.6641631,6.57702521 82.6641631,7.00987661 L82.6641631,35.8965129 C82.6641631,36.335971 82.4259657,36.7408262 82.0421137,36.9552039 L76.06875,40.2881974 L76.06875,40.2881974 Z" id="path24" fill="#404137"></path>
                    <path d="M111.980955,14.9011803 C112.354345,15.1180526 112.583691,15.5172747 112.583691,15.9491685 L112.583691,18.7572425 C112.583691,19.1891363 112.354345,19.5886803 111.98015,19.8055526 L102.007242,25.5964056 C101.631438,25.8142436 101.168723,25.8145655 100.792114,25.598015 L90.7580472,19.8049088 C90.3830472,19.5883584 90.1520923,19.1884925 90.1520923,18.7553112 L90.1520923,7.17019313 C90.1520923,6.73450912 90.3862661,6.33246245 90.764485,6.11713519 L100.736588,0.435052307 C101.104345,0.225070815 101.554989,0.222869903 101.925161,0.42845118 L107.956545,3.78093348 C108.148069,3.88718079 108.267167,4.08804721 108.267972,4.30651288 C108.269582,4.52498659 108.152897,4.72742221 107.963788,4.8361883 L97.8661481,10.6320547 C97.6770386,10.7398873 97.5611588,10.9407457 97.5611588,11.157618 L97.5611588,14.7883584 C97.5611588,15.0049088 97.6770386,15.2051234 97.8645386,15.3132779 L101.007779,17.1251878 C101.194474,17.2332618 101.425429,17.2332618 101.612929,17.1251878 L104.756974,15.3132779 C104.944474,15.2051234 105.060354,15.0049088 105.060354,14.7883584 L105.060354,11.9318401 C105.060354,11.7149678 105.176234,11.5144313 105.363734,11.4062768 C105.552039,11.2978809 105.782994,11.2987661 105.970494,11.4075644 L111.980955,14.9011803" id="path26" fill="#404137"></path>
                    <path d="M40.7431062,25.658691 C41.1177843,25.8752414 41.5798552,25.8752414 41.9545333,25.658691 L51.9912554,19.8668723 C52.3665773,19.6505633 52.5976127,19.250456 52.5976127,18.8169528 L52.5976127,7.22456813 C52.5976127,6.7914029 52.3665773,6.39156116 51.9918991,6.1746647 L41.955177,0.378156116 C41.5798552,0.161572693 41.1177843,0.161572693 40.7424624,0.378156116 L30.7083155,6.1746647 C30.333235,6.39156116 30.1021996,6.7914029 30.1021996,7.22456813 L30.1021996,18.8175966 C30.1021996,19.250456 30.333235,19.6505633 30.7085569,19.8668723 L40.7431062,25.658691" id="path28" fill="#83CD29"></path>
                    <path d="M131.468079,0.212496245 C131.122049,0.212496245 130.778433,0.303027361 130.475858,0.478117758 L127.315719,2.34783798 C126.844152,2.61188305 127.074303,2.70524678 127.229614,2.75962983 C127.85971,2.97809549 127.986856,3.02839056 128.658798,3.40937768 C128.728809,3.44867221 128.821352,3.43389753 128.893777,3.39145655 L131.320815,1.95019313 C131.409335,1.90146727 131.533262,1.90146727 131.614539,1.95019313 L141.078058,7.41255097 C141.166577,7.46284603 141.222908,7.56437768 141.222908,7.66874195 L141.222908,18.5906652 C141.222908,18.6975322 141.166577,18.7974785 141.076448,18.8515558 L131.616148,24.3094957 C131.528433,24.3604345 131.412554,24.3604345 131.324034,24.3094957 L121.866148,18.8499464 C121.77441,18.7974785 121.71647,18.6943938 121.71647,18.5906652 L121.71647,7.66874195 C121.71647,7.56437768 121.77441,7.46535676 121.865343,7.41568938 L124.458155,5.91784603 C125.864807,5.21465665 126.726663,6.04295601 126.726663,6.87502146 L126.726663,17.6586373 C126.726663,17.8110515 126.848981,17.9314378 127.001073,17.9314378 L128.201717,17.9314378 C128.351395,17.9314378 128.475322,17.8110515 128.475322,17.6586373 L128.475322,6.87502146 C128.475322,4.99776019 127.453326,3.92113197 125.673283,3.92113197 C125.126073,3.92113197 124.695547,3.92113197 123.493294,4.51366416 L121.011534,5.94236588 C120.398337,6.29662822 120.019313,6.9592677 120.019313,7.66874195 L120.019313,18.5906652 C120.019313,19.3004292 120.398337,19.9627146 121.011534,20.3157457 L130.475858,25.7843884 C131.074571,26.1232564 131.87044,26.1232564 132.464324,25.7843884 L141.927843,20.3157457 C142.541041,19.9611856 142.921674,19.3004292 142.921674,18.5906652 L142.921674,7.66874195 C142.921674,6.9592677 142.541041,6.29913895 141.927843,5.94236588 L132.464324,0.478117758 C132.161749,0.303027361 131.818938,0.212496245 131.468079,0.212496245" id="path30" fill="#83CD29"></path>
                    <path d="M134.391631,7.73726395 C130.249732,7.73726395 129.382242,9.63814378 129.382242,11.232779 C129.382242,11.3843079 129.50456,11.505338 129.655848,11.505338 L130.879828,11.505338 C131.016631,11.505338 131.130097,11.4072425 131.151824,11.2736588 C131.336105,10.0278702 131.887339,9.3992221 134.391631,9.3992221 C136.384925,9.3992221 137.233906,9.85026824 137.233906,10.908074 C137.233906,11.5178916 136.993294,11.9705472 133.895118,12.2738466 C131.305526,12.5300697 129.704131,13.1021459 129.704131,15.1737393 C129.704131,17.0833423 131.313573,18.2221835 134.011803,18.2221835 C137.043991,18.2221835 138.543991,17.1697693 138.733906,14.9122049 C138.741148,14.8342275 138.713788,14.7597103 138.662285,14.701529 C138.609979,14.6472103 138.537554,14.6141363 138.46191,14.6141363 L137.233101,14.6141363 C137.105955,14.6141363 136.993294,14.7046674 136.967543,14.8279506 C136.673015,16.1387607 135.956009,16.557779 134.011803,16.557779 C131.835032,16.557779 131.58235,15.7992489 131.58235,15.2311964 C131.58235,14.542838 131.880901,14.3423015 134.819742,13.9534603 C137.728004,13.5689646 139.10971,13.0245708 139.10971,10.980338 C139.10971,8.91824034 137.390021,7.73726395 134.391631,7.73726395" id="path32" fill="#83CD29"></path>
                    <path d="M147.441792,25.7592811 L147.441792,25.4788358 L146.645118,25.4788358 L146.645118,23.4032189 L146.324034,23.4032189 L146.324034,25.4788358 L145.530579,25.4788358 L145.530579,25.7592811 L147.441792,25.7592811" id="path34" fill="#83CD29"></path>
                    <path d="M147.725858,25.7592811 L148.183745,25.7592811 L148.85971,23.767838 L149.533262,25.7592811 L149.987929,25.7592811 L149.987929,23.4032189 L149.68294,23.4032189 L149.68294,24.7936159 C149.68294,24.8423015 149.683745,24.9214861 149.685354,25.0315719 C149.688573,25.1447157 149.690182,25.2641363 149.690182,25.3907994 L149.016631,23.4032189 L148.700376,23.4032189 L148.021191,25.3907994 L148.021191,25.3201448 C148.021191,25.2619635 148.021191,25.173927 148.025215,25.0545064 C148.027629,24.9372586 148.030848,24.8501878 148.030848,24.7936159 L148.030848,23.4032189 L147.725858,23.4032189 L147.725858,25.7592811" id="path36" fill="#83CD29"></path>
                    <path d="M101.251609,15.4437232 C101.324034,15.4855687 101.412554,15.4855687 101.484174,15.4437232 L103.410676,14.3324839 C103.482296,14.2910408 103.526556,14.2143509 103.526556,14.1310622 L103.526556,11.9070547 C103.526556,11.8237661 103.482296,11.7470762 103.410676,11.7055526 L101.484174,10.5943133 C101.412554,10.5525483 101.324034,10.5525483 101.251609,10.5943133 L99.3275215,11.7055526 C99.2550966,11.7470762 99.2108369,11.8237661 99.2108369,11.9070547 L99.2108369,14.1310622 C99.2108369,14.2143509 99.2550966,14.2910408 99.3275215,14.3324839 L101.251609,15.4437232" id="path38" fill="#83CD29"></path>
                </g>
            </g>
        </g>
    </g>
</svg>