<?xml version="1.0" encoding="UTF-8" standalone="no"?>
<svg width="150px" height="44px" viewBox="0 0 150 44" version="1.1" xmlns="http://www.w3.org/2000/svg" xmlns:xlink="http://www.w3.org/1999/xlink" xmlns:sketch="http://www.bohemiancoding.com/sketch/ns">
    <!-- Generator: Sketch 3.3.3 (12081) - http://www.bohemiancoding.com/sketch -->
    <title>Logo_python</title>
    <desc>Created with Sketch.</desc>
    <defs>
        <linearGradient x1="1.06341024e-07%" y1="9.14856261e-08%" x2="74.5209927%" y2="64.1103734%" id="linearGradient-1">
            <stop stop-color="#5A9FD4" offset="0%"></stop>
            <stop stop-color="#306998" offset="100%"></stop>
        </linearGradient>
        <linearGradient x1="49.9999998%" y1="82.2756107%" x2="23.4426562%" y2="44.914431%" id="linearGradient-2">
            <stop stop-color="#FFD43B" offset="0%"></stop>
            <stop stop-color="#FFE873" offset="100%"></stop>
        </linearGradient>
        <radialGradient cx="49.9999909%" cy="50.0000434%" fx="49.9999909%" fy="50.0000434%" r="29.660807%" id="radialGradient-3">
            <stop stop-color="#B8B8B8" stop-opacity="0.49803922" offset="0%"></stop>
            <stop stop-color="#7F7F7F" stop-opacity="0" offset="100%"></stop>
        </radialGradient>
    </defs>
    <g id="Symbols" stroke="none" stroke-width="1" fill="none" fill-rule="evenodd" sketch:type="MSPage">
        <g id="Homepage" sketch:type="MSArtboardGroup" transform="translate(-843.000000, -2784.000000)">
            <g id="Module-5" sketch:type="MSLayerGroup" transform="translate(176.000000, 2721.000000)">
                <g id="Logo_python" transform="translate(667.000000, 63.000000)" sketch:type="MSShapeGroup">
                    <path d="M56.6008739,18.5701774 C56.6008739,13.9812646 55.2923887,11.6253759 52.6754181,11.4963696 C51.6341565,11.4472257 50.6174716,11.6130892 49.6284265,11.9970356 C48.8390357,12.2796186 48.3076576,12.5591322 48.0281439,12.8417152 L48.0281439,23.7949043 C49.7021439,24.8453801 51.1887826,25.3337562 52.4849811,25.2569694 C55.2278855,25.0757467 56.6008739,22.8488644 56.6008739,18.5701774 L56.6008739,18.5701774 Z M59.8290851,18.7606144 C59.8290851,21.0919295 59.2823477,23.0270146 58.1827279,24.5658665 C56.9571744,26.3074421 55.2586008,27.2043381 53.0870074,27.2534852 C51.4498645,27.3057016 49.7635777,26.7927488 48.0281439,25.7177026 L48.0281439,35.6726345 L45.2207363,34.6713057 L45.2207363,12.5744883 C45.6814695,12.0093224 46.2742815,11.5240157 46.9930273,11.1124264 C48.663958,10.1387404 50.6942584,9.63807447 53.0839349,9.6135041 L53.1238645,9.65343372 C55.3077447,9.62578771 56.9909622,10.5226869 58.1735137,12.3410493 C59.2762027,14.0089075 59.8290851,16.1467163 59.8290851,18.7606144 L59.8290851,18.7606144 Z" id="path46" fill="#646464"></path>
                    <path d="M76.9868288,25.2938266 C76.9868288,28.4206774 76.6735305,30.5861282 76.0469338,31.7901807 C75.4172616,32.9942332 74.219354,33.9556324 72.4501324,34.6713057 C71.0157132,35.2364716 69.4645746,35.5436282 67.7997889,35.5958445 L67.3359832,33.8266261 C69.0284118,33.5962595 70.2201807,33.3658897 70.9112805,33.1355231 C72.2719821,32.6747899 73.2057384,31.9683309 73.718688,31.0222878 C74.1302773,30.2513266 74.3330011,28.7800503 74.3330011,26.6023119 L74.3330011,25.8712825 C72.4132752,26.7436049 70.4014002,27.1766953 68.2973824,27.1766953 C66.9151796,27.1766953 65.6957679,26.7436049 64.6452952,25.8712825 C63.465813,24.9221669 62.8760735,23.7181144 62.8760735,22.2591249 L62.8760735,10.5749033 L65.6834811,9.6135041 L65.6834811,21.3745125 C65.6834811,22.6307814 66.0889286,23.5983255 66.8998204,24.2771417 C67.7107122,24.9559547 68.761188,25.2815398 70.0481723,25.2569694 C71.3351565,25.2293234 72.7142868,24.7317299 74.1794212,23.7580472 L74.1794212,10.0373801 L76.9868288,10.0373801 L76.9868288,25.2938266 L76.9868288,25.2938266 Z" id="path48" fill="#646464"></path>
                    <path d="M87.9461628,27.0999054 C87.6113634,27.1275482 87.3042069,27.139835 87.0216239,27.139835 C85.433625,27.139835 84.1957847,26.7620335 83.3111754,26.0033581 C82.4296355,25.2446827 81.987334,24.1972793 81.987334,22.8611512 L81.987334,11.8035262 L80.0645357,11.8035262 L80.0645357,10.0373801 L81.987334,10.0373801 L81.987334,5.34710389 L84.7916691,4.34884443 L84.7916691,10.0373801 L87.9461628,10.0373801 L87.9461628,11.8035262 L84.7916691,11.8035262 L84.7916691,22.7843612 C84.7916691,23.8379064 85.0742521,24.5842951 85.6394212,25.0204579 C86.1247279,25.3798308 86.8956901,25.585627 87.9461628,25.6378434 L87.9461628,27.0999054 L87.9461628,27.0999054 Z" id="path50" fill="#646464"></path>
                    <path d="M104.944185,26.8695388 L102.136777,26.8695388 L102.136777,16.0330692 C102.136777,14.930377 101.878765,13.9812646 101.365818,13.1888014 C100.773006,12.2919054 99.9498246,11.8434558 98.8932101,11.8434558 C97.6062227,11.8434558 95.9967227,12.522272 94.0647164,13.8799043 L94.0647164,26.8695388 L91.2573057,26.8695388 L91.2573057,0.967056586 L94.0647164,0.0824473424 L94.0647164,11.8803161 C95.8585084,10.5749033 97.8181607,9.92066061 99.9467521,9.92066061 C101.433391,9.92066061 102.637443,10.4213234 103.55891,11.4195829 C104.483452,12.4178392 104.944185,13.6618213 104.944185,15.1484568 L104.944185,26.8695388 L104.944185,26.8695388 Z" id="path52" fill="#646464"></path>
                    <path d="M119.865832,18.1278728 C119.865832,16.3647961 119.531036,14.9088759 118.864503,13.7570398 C118.072043,12.353336 116.840348,11.6130892 115.175559,11.5362993 C112.097855,11.7144526 110.562076,13.9198339 110.562076,18.1463014 C110.562076,20.0844589 110.881516,21.7031701 111.526541,23.0024411 C112.349723,24.6580125 113.584491,25.4750493 115.230848,25.4474064 C118.320838,25.4228329 119.865832,22.9840125 119.865832,18.1278728 L119.865832,18.1278728 Z M122.94047,18.1463014 C122.94047,20.6557699 122.298514,22.7444316 121.017671,24.4122898 C119.607826,26.2797993 117.660454,27.2166249 115.175559,27.2166249 C112.712168,27.2166249 110.792442,26.2797993 109.407167,24.4122898 C108.150898,22.7444316 107.524298,20.6557699 107.524298,18.1463014 C107.524298,15.7873434 108.203114,13.8031144 109.560744,12.1874726 C110.995166,10.4735398 112.881104,9.6135041 115.212416,9.6135041 C117.543734,9.6135041 119.441956,10.4735398 120.904024,12.1874726 C122.26165,13.8031144 122.94047,15.7873434 122.94047,18.1463014 L122.94047,18.1463014 Z" id="path54" fill="#646464"></path>
                    <path d="M139.035451,26.8695388 L136.228043,26.8695388 L136.228043,15.4187562 C136.228043,14.1624873 135.850242,13.1826596 135.094639,12.4761974 C134.339033,11.7728108 133.331562,11.4318665 132.075293,11.4595125 C130.742237,11.484086 129.473679,11.9202457 128.269629,12.7649253 L128.269629,26.8695388 L125.462222,26.8695388 L125.462222,12.4178392 C127.077863,11.2414327 128.564499,10.4735398 129.922125,10.1141669 C131.202971,9.77936754 132.333306,9.6135041 133.306992,9.6135041 C133.973521,9.6135041 134.600118,9.67800725 135.189857,9.8070104 C136.292549,10.0619505 137.189442,10.5349705 137.880545,11.2291459 C138.651504,11.9970356 139.035451,12.9185051 139.035451,13.9966207 L139.035451,26.8695388 L139.035451,26.8695388 Z" id="path56" fill="#646464"></path>
                    <path d="M17.4926962,1.07078978 C16.0482678,1.07750143 14.6688709,1.20069032 13.4551437,1.4154589 C9.87965546,2.04713026 9.2304854,3.36927258 9.23048508,5.80752826 L9.23048508,9.02772258 L17.6798023,9.02772258 L17.6798023,10.1011207 L9.23048508,10.1011207 L6.0595292,10.1011207 C3.60392237,10.1011207 1.45372273,11.5770819 0.781167794,14.3848654 C0.00538418067,17.6032371 -0.0290260399,19.6115534 0.781167794,22.9720503 C1.38177545,25.4734743 2.81610788,27.2557944 5.27171408,27.2557951 L8.17678235,27.2557951 L8.17678235,23.3955009 C8.17678235,20.6066663 10.5897479,18.1466833 13.4551437,18.1466827 L21.8946132,18.1466827 C24.2438625,18.1466827 26.1192728,16.2123873 26.1192718,13.8530902 L26.1192718,5.80752826 C26.1192718,3.51771555 24.1875555,1.79761938 21.8946132,1.4154589 C20.4431467,1.17384378 18.9371247,1.06407813 17.4926962,1.07078978 L17.4926962,1.07078978 Z M12.9233685,3.66073204 C13.7961249,3.66073204 14.5088464,4.38509527 14.5088464,5.27575305 C14.5088458,6.16325389 13.7961249,6.88092637 12.9233685,6.88092637 C12.0474832,6.88092605 11.3378905,6.16325357 11.3378905,5.27575305 C11.3378902,4.38509559 12.0474832,3.66073204 12.9233685,3.66073204 L12.9233685,3.66073204 Z" id="path1948" fill="url(#linearGradient-1)"></path>
                    <path d="M27.1729746,10.1011207 L27.1729746,13.8530902 C27.1729746,16.7619416 24.7068312,19.2102328 21.8946132,19.2102331 L13.4551437,19.2102331 C11.1434316,19.2102331 9.2304854,21.1887466 9.23048508,23.5038255 L9.23048508,31.5493866 C9.23048508,33.8391996 11.2216368,35.186042 13.4551437,35.842979 C16.1297228,36.6294107 18.6945041,36.7715389 21.8946132,35.842979 C24.0217629,35.2270998 26.1192728,33.9876397 26.1192718,31.5493866 L26.1192718,28.3291932 L17.6798023,28.3291932 L17.6798023,27.2557951 L26.1192718,27.2557951 L30.3439317,27.2557951 C32.7995389,27.2557951 33.7145987,25.5429564 34.5685872,22.9720503 C35.450729,20.3253425 35.4131943,17.7801041 34.5685872,14.3848654 C33.9617237,11.9402937 32.8026618,10.1011207 30.3439317,10.1011207 L27.1729746,10.1011207 L27.1729746,10.1011207 Z M22.4263884,30.4759894 C23.3022744,30.4759903 24.0118664,31.1936628 24.0118664,32.0811618 C24.0118658,32.9718183 23.3022734,33.6961828 22.4263884,33.6961828 C21.5536311,33.6961828 20.8409105,32.9718183 20.8409105,32.0811618 C20.8409111,31.1936628 21.5536301,30.4759894 22.4263884,30.4759894 L22.4263884,30.4759894 Z" id="path1950" fill="url(#linearGradient-2)"></path>
                    <path d="M144.502437,7.53446943 L144.994648,7.53446943 L144.994648,4.44741901 L146.160655,4.44741901 L146.160655,4.07945893 L143.33643,4.07945893 L143.33643,4.44741901 L144.502437,4.44741901 L144.502437,7.53446943 M146.597086,7.53446943 L147.017612,7.53446943 L147.017612,4.71502721 L147.930347,7.53411523 L148.398526,7.53411523 L149.349627,4.72458498 L149.349627,7.53446943 L149.808384,7.53446943 L149.808384,4.07945893 L149.201486,4.07945893 L148.162103,7.03939286 L147.275663,4.07945893 L146.597086,4.07945893 L146.597086,7.53446943" id="text3004" fill="#646464"></path>
                    <path d="M29.0984593,41.3123444 C29.0984593,42.0967501 26.9403483,42.8215709 23.4370657,43.2137737 C19.9337831,43.6059766 15.6175609,43.6059766 12.1142782,43.2137737 C8.61099563,42.8215709 6.45288457,42.0967501 6.45288463,41.3123444 C6.45288455,40.5279387 8.6109956,39.8031179 12.1142782,39.410915 C15.6175609,39.0187121 19.9337831,39.0187121 23.4370657,39.410915 C26.9403483,39.8031179 29.0984594,40.5279387 29.0984593,41.3123444 L29.0984593,41.3123444 Z" id="path1894" opacity="0.44382019" fill="url(#radialGradient-3)"></path>
                </g>
            </g>
        </g>
    </g>
</svg>